<?xml version="1.0" encoding="UTF-8"?>
<svg version="1.1" xmlns="http://www.w3.org/2000/svg" width="637" height="597">
<path d="M0 0 C210.21 0 420.42 0 637 0 C637 197.01 637 394.02 637 597 C426.79 597 216.58 597 0 597 C0 399.99 0 202.98 0 0 Z M542.75 63.1875 C541.89921875 63.98542969 541.0484375 64.78335938 540.171875 65.60546875 C537.74020389 68.07017561 537.74020389 68.07017561 536 72 C541.94 77.94 547.88 83.88 554 90 C561.99858322 83.59924086 561.99858322 83.59924086 567 75 C563.68047171 68.66271871 557.88655914 61.34337532 551.0390625 58.9765625 C546.92641377 59.00827959 545.67296511 60.36764562 542.75 63.1875 Z M526.97276306 79.67233276 C526.0415564 80.56256386 526.0415564 80.56256386 525.09153748 81.47077942 C524.41156204 82.13123764 523.73158661 82.79169586 523.03100586 83.47216797 C521.95497604 84.50679924 521.95497604 84.50679924 520.85720825 85.56233215 C514.18498735 91.99487838 507.56801875 98.48505277 500.96568966 104.98924065 C496.53877266 109.3503144 492.09731638 113.69348761 487.61254883 117.99511719 C458.92417507 143.3184971 458.92417507 143.3184971 446 178 C446.33 178.66 446.66 179.32 447 180 C475.25438791 176.61928192 492.05543174 155.07161773 510.62109375 135.61486816 C514.93270087 131.1168431 519.29779466 126.67134394 523.65820312 122.22070312 C532.15759071 113.53010208 540.5975326 104.78427312 549 96 C547.52303509 92.9116098 546.01801272 90.76142384 543.59375 88.328125 C542.93246094 87.66425781 542.27117187 87.00039062 541.58984375 86.31640625 C540.55537109 85.29353516 540.55537109 85.29353516 539.5 84.25 C538.46552734 83.20392578 538.46552734 83.20392578 537.41015625 82.13671875 C536.74886719 81.47800781 536.08757812 80.81929688 535.40625 80.140625 C534.80103516 79.53766602 534.19582031 78.93470703 533.57226562 78.31347656 C530.63508791 75.85974735 529.37633463 77.3589106 526.97276306 79.67233276 Z M127 207 C127 302.37 127 397.74 127 496 C254.05 496 381.1 496 512 496 C512 400.63 512 305.26 512 207 C384.95 207 257.9 207 127 207 Z M70 241 C70 345.61 70 450.22 70 558 C135.67 558 201.34 558 269 558 C269.33 560.64 269.66 563.28 270 566 C273.05771657 570.63025652 275.91092259 572.9057403 281 575 C283.62239173 575.2880314 286.00543333 575.43110445 288.62255859 575.41992188 C289.36160934 575.42839142 290.1006601 575.43686096 290.86210632 575.44558716 C293.29106128 575.46887417 295.71937962 575.46998128 298.1484375 575.46875 C299.84705861 575.47585702 301.54567734 575.48355681 303.24429321 575.49182129 C306.79997433 575.50524733 310.35543349 575.50684354 313.91113281 575.50097656 C318.45290167 575.49508463 322.99360001 575.52565907 327.53516197 575.56609344 C331.04236523 575.5920278 334.54931275 575.59484265 338.05659866 575.59120178 C339.73024814 575.59288792 341.40391008 575.60248153 343.07746506 575.62034607 C355.42904543 575.86165741 355.42904543 575.86165741 366 570 C367.70133663 568.03193868 367.70133663 568.03193868 368.5 565.9375 C368.7990625 565.28652344 369.098125 564.63554688 369.40625 563.96484375 C370.19284523 561.70393385 370.19284523 561.70393385 370 558 C435.67 558 501.34 558 569 558 C569 453.39 569 348.78 569 241 C557.78 241 546.56 241 535 241 C535 332.74 535 424.48 535 519 C392.44 519 249.88 519 103 519 C103 427.26 103 335.52 103 241 C92.11 241 81.22 241 70 241 Z " fill="#C45A11" transform="translate(0,0)"/>
<path d="M0 0 C49.17 0 98.34 0 149 0 C149 73.26 149 146.52 149 222 C99.83 222 50.66 222 0 222 C0 148.74 0 75.48 0 0 Z M35 58 C35 63.28 35 68.56 35 74 C61.07 74 87.14 74 114 74 C114 68.72 114 63.44 114 58 C87.93 58 61.86 58 35 58 Z M35 92 C35 97.28 35 102.56 35 108 C61.07 108 87.14 108 114 108 C114 102.72 114 97.44 114 92 C87.93 92 61.86 92 35 92 Z M36 129 C36 134.61 36 140.22 36 146 C61.74 146 87.48 146 114 146 C114 140.39 114 134.78 114 129 C88.26 129 62.52 129 36 129 Z M34 164 C34 169.28 34 174.56 34 180 C60.07 180 86.14 180 113 180 C113 174.72 113 169.44 113 164 C86.93 164 60.86 164 34 164 Z " fill="#C45A10" transform="translate(330,240)"/>
<path d="M0 0 C48.84 0 97.68 0 148 0 C148 73.26 148 146.52 148 222 C99.16 222 50.32 222 0 222 C0 148.74 0 75.48 0 0 Z M90.40400696 25.54450989 C87.40866471 28.60399907 86.93074571 31.20030426 86.41088867 35.2878418 C86.29876887 36.02785525 86.18664907 36.76786871 86.07113171 37.53030682 C85.82683999 39.15503322 85.59190059 40.7811863 85.36507797 42.40844345 C84.99116187 45.06273867 84.58464154 47.71022534 84.1690979 50.35830688 C83.22912543 56.3666065 82.32627838 62.38020733 81.42578125 68.39453125 C81.09387138 70.60269234 80.76185339 72.81083719 80.42973328 75.01896667 C79.74001716 79.60821 79.05193732 84.19769492 78.36499023 88.78735352 C77.48415798 94.67115303 76.598623 100.55423412 75.71183491 106.43713856 C75.02778022 110.97919612 74.34644461 115.52165837 73.66591454 120.06424522 C73.34027429 122.23533352 73.01372337 124.40628543 72.68624306 126.57709694 C72.23113563 129.59631401 71.77975387 132.61606516 71.3293457 135.63598633 C71.19379776 136.52997131 71.05824982 137.4239563 70.91859436 138.34503174 C70.79671753 139.16737808 70.6748407 139.98972443 70.54927063 140.83699036 C70.38919258 141.90449131 70.38919258 141.90449131 70.22588062 142.99355793 C69.92541932 145.32596239 69.92541932 145.32596239 70 149 C69.16726562 148.67773438 68.33453125 148.35546875 67.4765625 148.0234375 C56.02713839 144.65293288 43.81703021 146.80755876 33.47265625 152.35546875 C27.4310295 156.10509733 22.7063453 160.51312047 19.5625 166.9375 C18.58486555 172.26017647 19.19767898 176.29506784 21.5 181.1875 C27.08983183 187.47606081 34.87574983 190.47665499 43.1484375 191.18359375 C55.7691744 191.56000169 67.62490181 187.53194161 77 179 C80.69310053 175.06309121 81.72833142 171.99327865 82.5949707 166.69677734 C82.71340238 165.99622915 82.83183405 165.29568096 82.95385456 164.57390404 C83.31900869 162.38490069 83.66153424 160.19327289 84 158 C84.21322959 156.66736457 84.42679203 155.33478235 84.64071655 154.0022583 C85.27579751 149.95499356 85.8824242 145.90441253 86.48046875 141.8515625 C86.70016272 140.37703211 86.9200822 138.9025353 87.14021301 137.42807007 C87.59492652 134.37810066 88.04766728 131.32784788 88.4987793 128.27734375 C89.077371 124.36523153 89.659996 120.45373286 90.24392223 116.54241371 C90.69547258 113.51609687 91.14549829 110.489555 91.5949955 107.46293259 C91.80955854 106.0187505 92.02446977 104.57462011 92.23973656 103.13054276 C92.5378454 101.12842593 92.83379704 99.12598825 93.12963867 97.12353516 C93.29823898 95.98598785 93.46683929 94.84844055 93.64054871 93.67642212 C94.04436928 91.11970813 94.04436928 91.11970813 94 89 C102.32742144 96.01362923 110.18172577 103.71111121 111.18945312 115.15063477 C111.21974609 115.90658936 111.25003906 116.66254395 111.28125 117.44140625 C111.31863281 118.27220703 111.35601562 119.10300781 111.39453125 119.95898438 C111.46500173 121.69856132 111.53531353 123.43814469 111.60546875 125.17773438 C111.66154297 126.42200195 111.66154297 126.42200195 111.71875 127.69140625 C111.74904297 128.44623291 111.77933594 129.20105957 111.81054688 129.97875977 C111.94218941 132.20375929 111.94218941 132.20375929 113 135 C115.925916 136.462958 117.75617347 136.44523109 121 136 C127.86292099 129.95409341 130.54838445 119.98937298 131.12402344 111.08056641 C131.93289905 89.845085 127.44416163 70.86671858 114 54 C111.94248874 51.82481479 109.82138899 49.75068985 107.66015625 47.6796875 C102.94405639 42.90810411 102.62125583 37.982361 102.40625 31.5859375 C101.93162 28.56473501 101.09837563 27.19782471 99 25 C95.31191465 23.7171877 93.79548249 23.52672039 90.40400696 25.54450989 Z " fill="#C45910" transform="translate(160,240)"/>
<path d="M0 0 C39.6 0 79.2 0 120 0 C118.875 13.5 118.875 13.5 117.9375 18.75 C117.67259766 20.25820313 117.67259766 20.25820313 117.40234375 21.796875 C117.26957031 22.52390625 117.13679688 23.2509375 117 24 C116.34 24 115.68 24 115 24 C114.86464844 23.41992188 114.72929687 22.83984375 114.58984375 22.2421875 C113.20480407 17.21623511 111.68496509 13.39680778 107.34399414 10.31713867 C94.94521004 3.35000606 77.27661272 5.44125735 63.625 5.3125 C55.16875 5.209375 46.7125 5.10625 38 5 C38 27.11 38 49.22 38 72 C65.90006297 73.82869254 65.90006297 73.82869254 75 67 C75.99 65.515 75.99 65.515 77 64 C77.66 64 78.32 64 79 64 C79.21921738 70.46691276 78.56880781 76.44419894 77.51171875 82.82421875 C76.8592649 86.87341706 76.41487778 90.92036845 76 95 C74.515 94.505 74.515 94.505 73 94 C72.24326017 92.28910995 71.49203788 90.57509656 70.79296875 88.83984375 C68.58894677 83.72607846 65.26643068 80.89962136 60.21044922 78.8449707 C55.86527709 77.70134783 51.63581793 77.56240326 47.16015625 77.390625 C46.27847778 77.3508252 45.39679932 77.31102539 44.48840332 77.27001953 C42.32588958 77.17335451 40.16297334 77.0857678 38 77 C38.0381128 84.85007863 38.09755495 92.69968419 38.18390274 100.54936409 C38.22333889 104.19471102 38.25554588 107.83981781 38.27099609 111.48535156 C38.28618879 115.00643076 38.32067882 118.52684959 38.36830902 122.04763412 C38.39027132 124.03825582 38.39247149 126.02906394 38.39434814 128.01980591 C38.46206731 136.83025855 38.46206731 136.83025855 43 144 C47.78642507 147.67026292 53.11495237 148.57963946 59 149 C59 149.33 59 149.66 59 150 C39.53 150.33 20.06 150.66 0 151 C0 150.34 0 149.68 0 149 C0.66386719 148.90203125 1.32773438 148.8040625 2.01171875 148.703125 C9.34013888 147.52317159 9.34013888 147.52317159 15 143 C18.168241 136.25616645 18.42576587 129.70125002 18.37231445 122.36499023 C18.37596512 121.23535858 18.37961578 120.10572693 18.38337708 118.94186401 C18.39144257 115.23061808 18.37790608 111.51981423 18.36328125 107.80859375 C18.3627622 105.21745301 18.36328163 102.62631186 18.36479187 100.03517151 C18.36470233 94.61428443 18.35465091 89.19355742 18.33618164 83.77270508 C18.31500748 77.52251107 18.31150806 71.27250087 18.3177436 65.02227825 C18.3234552 58.98611259 18.31766482 52.9500279 18.30657005 46.91386604 C18.30272855 44.35547202 18.30156547 41.79707249 18.3031559 39.23867607 C18.30352782 35.66088307 18.29087061 32.08336658 18.2746582 28.50561523 C18.27713562 27.45448044 18.27961304 26.40334564 18.28216553 25.32035828 C18.39137653 15.13577725 18.39137653 15.13577725 13.625 6.625 C12.75875 6.08875 11.8925 5.5525 11 5 C10.38125 4.608125 9.7625 4.21625 9.125 3.8125 C6.14271573 2.67221484 3.15930439 2.36453512 0 2 C0 1.34 0 0.68 0 0 Z " fill="#D9A335" transform="translate(64,14)"/>
<path d="M0 0 C0.66 0.99 1.32 1.98 2 3 C-2.49797113 1.31326082 -6.72886302 -0.81673892 -11 -3 C-11 -2.34 -11 -1.68 -11 -1 C-12.485 -0.01 -12.485 -0.01 -14 1 C-12.61071336 4.10870081 -10.95864793 6.28387424 -8.625 8.75 C-0.37602304 17.97854298 0.88564 27.75030079 0.23535156 39.87353516 C-0.67357254 48.08590955 -4.39852601 55.27842539 -9 62 C-9.33 62.845625 -9.66 63.69125 -10 64.5625 C-11.20719742 67.50504371 -12.94008161 69.59676187 -15 72 C-14.05125 71.484375 -13.1025 70.96875 -12.125 70.4375 C-11.09375 69.963125 -10.0625 69.48875 -9 69 C-8.34 69.33 -7.68 69.66 -7 70 C-12.5354018 75.16969958 -18.7202872 78.57524482 -25.5 81.8125 C-26.29446533 82.19720459 -27.08893066 82.58190918 -27.9074707 82.97827148 C-33.21377064 85.44559453 -38.24919646 86.91309813 -44 88 C-44 87.34 -44 86.68 -44 86 C-42.99582031 85.55011719 -41.99164063 85.10023438 -40.95703125 84.63671875 C-24.7082443 77.10654951 -11.67990504 67.14333971 -4.8203125 50.0625 C-4.08526037 47.71033319 -3.48380046 45.41468266 -3 43 C-2.72929688 41.77023438 -2.72929688 41.77023438 -2.453125 40.515625 C-0.68714676 30.71140098 -2.47161527 21.67565691 -7.75 13.25 C-16.44159901 1.1795153 -28.7850004 -2.55369774 -43 -5 C-44.00675781 -5.18691406 -45.01351563 -5.37382813 -46.05078125 -5.56640625 C-67.18937609 -7.88726088 -88.39273187 -5.79434401 -109 -1 C-110.48412138 -0.68110901 -111.9685131 -0.36347448 -113.453125 -0.046875 C-145.68160828 7.01836389 -177.26953138 18.83858903 -207 33 C-207.94166016 33.44827148 -208.88332031 33.89654297 -209.85351562 34.35839844 C-221.9948358 40.14599057 -234.10597137 45.98347402 -246.10986328 52.05126953 C-248.14992046 53.0752507 -250.19717919 54.08370934 -252.24609375 55.08984375 C-258.38959316 58.11502527 -264.4137608 61.12677938 -270.1328125 64.9140625 C-273.16188901 66.67574298 -276.41320709 67.82386115 -279.703125 69.0078125 C-282.13135191 70.05674045 -283.89789172 71.40989037 -286 73 C-288.05078125 73.921875 -288.05078125 73.921875 -290.3125 74.75 C-294.06286818 76.18525821 -297.68436139 77.77767863 -301.29980469 79.52587891 C-317.31079174 87.25803432 -336.80872937 94.4933111 -354.5625 88.5 C-355.696875 88.005 -356.83125 87.51 -358 87 C-358 86.67 -358 86.34 -358 86 C-356.67548828 85.94392578 -356.67548828 85.94392578 -355.32421875 85.88671875 C-344.58350184 85.29834435 -335.84389596 83.25553545 -326 79 C-325.95360667 71.1329647 -325.91809528 63.2659616 -325.89637566 55.39882374 C-325.88594996 51.74556957 -325.87181305 48.09240919 -325.84912109 44.43920898 C-325.82734924 40.91195952 -325.81542224 37.38480012 -325.81024551 33.85748863 C-325.80476588 31.86059471 -325.78915984 29.86373689 -325.77340698 27.86689758 C-325.77325592 26.64600937 -325.77310486 25.42512115 -325.77294922 24.16723633 C-325.76628738 22.55840324 -325.76628738 22.55840324 -325.75949097 20.91706848 C-326.01191952 17.85543138 -326.5596154 15.70962447 -328 13 C-330.84376315 11.74467197 -330.84376315 11.74467197 -334.125 11.1875 C-335.22070312 10.95417969 -336.31640625 10.72085938 -337.4453125 10.48046875 C-338.28835938 10.32191406 -339.13140625 10.16335937 -340 10 C-340 9.67 -340 9.34 -340 9 C-324.49 9 -308.98 9 -293 9 C-295 11 -295 11 -298.375 11.3125 C-301.98364027 11.70024009 -301.98364027 11.70024009 -304.18847656 13.77416992 C-306.99816275 18.77745611 -306.60337001 23.65385356 -306.609375 29.30078125 C-306.62591125 30.49229294 -306.64244751 31.68380463 -306.65948486 32.91142273 C-306.7080154 36.711834 -306.72934818 40.51184494 -306.75 44.3125 C-306.77815527 46.89129624 -306.80808206 49.47007379 -306.83984375 52.04882812 C-306.91377603 58.36581262 -306.96538902 64.68268429 -307 71 C-291.72859054 64.17946579 -291.72859054 64.17946579 -276.6875 56.87109375 C-268.54596073 52.74094153 -260.29784926 48.86776866 -252 45.0625 C-251.21708588 44.70338531 -250.43417175 44.34427063 -249.62753296 43.97427368 C-219.5764097 30.21916941 -189.35132177 17.49067393 -158 7 C-156.68701703 6.55686595 -155.37411085 6.11350432 -154.0612793 5.66992188 C-147.05822555 3.31035835 -140.04640588 1.02096763 -132.9375 -1 C-132.06681885 -1.24782227 -131.1961377 -1.49564453 -130.29907227 -1.75097656 C-91.56820429 -12.5730908 -36.19284267 -23.28390275 0 0 Z " fill="#F0C44E" transform="translate(486,46)"/>
<path d="M0 0 C8.32613321 7.45060168 12.3834489 15.61123592 13.015625 26.84765625 C13.35535051 38.53821053 8.80679209 49.44257288 1.6328125 58.57421875 C-11.24652963 72.15871005 -29.64219138 79.06712456 -48.17041016 79.81982422 C-55.15067432 79.9448593 -62.12661841 79.86576288 -69.10546875 79.6953125 C-69.10546875 79.0353125 -69.10546875 78.3753125 -69.10546875 77.6953125 C-67.47351563 77.53095703 -67.47351563 77.53095703 -65.80859375 77.36328125 C-48.20606012 75.50392946 -30.30657956 72.76349721 -18.10546875 58.6953125 C-12.37571559 50.23144477 -9.71893818 41.99576067 -9.79296875 31.8203125 C-9.7978833 31.0252832 -9.80279785 30.23025391 -9.80786133 29.41113281 C-9.95677264 21.96709434 -11.16503435 16.6336846 -15.29296875 10.3828125 C-25.57153578 0.56107067 -39.40367211 1.16740621 -52.7265625 1.390625 C-61.24793324 1.69428745 -68.95096073 3.31244979 -77.10546875 5.6953125 C-78.5447876 6.0979834 -78.5447876 6.0979834 -80.01318359 6.50878906 C-107.17075666 14.147253 -133.95875066 23.26877889 -154.10546875 43.6953125 C-154.75515625 44.34628906 -155.40484375 44.99726562 -156.07421875 45.66796875 C-160.64165397 50.58243949 -163.1633938 55.94425843 -163.48046875 62.6953125 C-163.19607693 68.72678898 -161.53814672 73.1975128 -157.35546875 77.5703125 C-150.7617646 81.8815806 -143.8141828 82.66384324 -136.10546875 81.6953125 C-128.98679284 79.72873765 -122.80630683 77.53083563 -118.10546875 71.6953125 C-117.44546875 71.3653125 -116.78546875 71.0353125 -116.10546875 70.6953125 C-117.0029182 75.81077436 -120.15690039 78.54524869 -124.10546875 81.6953125 C-132.48974924 86.40178256 -140.53940199 87.64310252 -150.10546875 86.6953125 C-157.54514555 84.49629201 -162.77446997 80.04660225 -167.10546875 73.6953125 C-169.9893485 67.927553 -169.95999259 61.38869071 -168.5234375 55.1796875 C-166.03559911 47.95473217 -161.47437261 42.99449034 -156.10546875 37.6953125 C-155.41453125 36.9940625 -154.72359375 36.2928125 -154.01171875 35.5703125 C-148.30039222 30.11471701 -141.81044206 26.31377928 -134.88330078 22.63916016 C-133.24942996 21.77174123 -131.6279477 20.8810922 -130.0078125 19.98828125 C-113.09079498 11.03714558 -94.5800395 4.58564005 -76.10546875 -0.3046875 C-75.12835938 -0.58699219 -74.15125 -0.86929688 -73.14453125 -1.16015625 C-53.31248899 -6.63202225 -17.6500453 -13.5568066 0 0 Z " fill="#F8EFAC" transform="translate(434.10546875,60.3046875)"/>
<path d="M0 0 C0.00586624 1.17018173 0.01173248 2.34036346 0.01777649 3.54600525 C0.07508759 14.59516034 0.14789312 25.64412021 0.23571491 36.69307613 C0.28036695 42.37292488 0.31963458 48.05270276 0.34643555 53.73266602 C0.37251987 59.2181965 0.41295886 64.70345349 0.46318626 70.18881416 C0.47982026 72.277447 0.49135606 74.36612711 0.49761391 76.45481682 C0.50729266 79.38935628 0.53539726 82.32320147 0.56762695 85.25756836 C0.56619186 86.11353104 0.56475677 86.96949371 0.5632782 87.85139465 C0.66763778 94.60760885 1.5195459 101.3854673 6.3125 106.4375 C11.99524445 109.74142119 17.56351268 110.4564744 24 111 C24 111.33 24 111.66 24 112 C4.2 112 -15.6 112 -36 112 C-36 111.67 -36 111.34 -36 111 C-35.33613281 110.84144531 -34.67226563 110.68289062 -33.98828125 110.51953125 C-28.35741497 109.03166731 -24.75042716 107.71827933 -21 103 C-19.29805537 99.59611074 -19.81889488 95.70730593 -19.79467773 91.96044922 C-19.78477814 91.02381439 -19.77487854 90.08717957 -19.76467896 89.12216187 C-19.73301078 86.01636307 -19.70828552 82.91054896 -19.68359375 79.8046875 C-19.66302881 77.65519811 -19.64203247 75.50571281 -19.62062073 73.35623169 C-19.5653525 67.69109399 -19.51596419 62.02591951 -19.46777344 56.36071777 C-19.41759306 50.58289302 -19.36188894 44.80512187 -19.30664062 39.02734375 C-19.19900096 27.68494159 -19.09756891 16.34249295 -19 5 C-18.31147949 4.79721436 -17.62295898 4.59442871 -16.91357422 4.38549805 C-16.0113916 4.11777588 -15.10920898 3.85005371 -14.1796875 3.57421875 C-13.28491699 3.30955811 -12.39014648 3.04489746 -11.46826172 2.7722168 C-8.90361117 2.00975696 -8.90361117 2.00975696 -6.125 0.8125 C-4 0 -4 0 0 0 Z " fill="#E6B33D" transform="translate(356,72)"/>
<path d="M0 0 C0.01458252 0.60473145 0.02916504 1.20946289 0.04418945 1.83251953 C0.11909188 4.59729265 0.21561073 7.36091357 0.3125 10.125 C0.34633789 11.55199219 0.34633789 11.55199219 0.38085938 13.0078125 C0.59264708 20.50862804 0.59264708 20.50862804 4 27 C9.31075418 29.68754091 15.31137862 30.54854874 21.125 31.5625 C33.74512706 33.90781095 46.12319169 37.29592518 58.52978516 40.55883789 C59.36367264 40.77680023 60.19756012 40.99476257 61.05671692 41.21932983 C62.62933672 41.63075413 64.20109066 42.04550871 65.77177429 42.46426392 C85.24269741 47.55627388 107.71071266 47.36951874 125.875 38.25 C133.43828467 33.78642216 139.35879171 28.42593327 144 21 C144.66 21 145.32 21 146 21 C144.19223046 32.17160952 137.37687091 41.67724671 129 49 C114.40499282 59.43215575 99.48871206 60.68045277 82 59 C73.4485341 57.45831349 65.21723684 54.77991557 57 52 C55.61354158 51.54347946 54.22685528 51.08764982 52.83984375 50.6328125 C50.47902844 49.84673036 48.12084961 49.05267745 45.765625 48.25 C19.2043487 39.43297882 -6.17020339 36.30637339 -34 36 C-33.67 35.34 -33.34 34.68 -33 34 C-31.7625 33.731875 -30.525 33.46375 -29.25 33.1875 C-24.95146387 32.21512019 -22.79718286 30.47528779 -20 27 C-19.13580777 24.40742331 -18.82419068 22.65962293 -18.68359375 19.98828125 C-18.64169922 19.23095703 -18.59980469 18.47363281 -18.55664062 17.69335938 C-18.51732422 16.90767578 -18.47800781 16.12199219 -18.4375 15.3125 C-18.39431641 14.51521484 -18.35113281 13.71792969 -18.30664062 12.89648438 C-18.20072632 10.93118553 -18.09987449 8.96561504 -18 7 C-15.37690901 5.82887054 -12.75171858 4.66294036 -10.125 3.5 C-9.37863281 3.16613281 -8.63226563 2.83226562 -7.86328125 2.48828125 C-7.14785156 2.17246094 -6.43242187 1.85664063 -5.6953125 1.53125 C-5.03547363 1.23798828 -4.37563477 0.94472656 -3.69580078 0.64257812 C-2 0 -2 0 0 0 Z " fill="#E2AD3D" transform="translate(179,132)"/>
<path d="M0 0 C39.6 0 79.2 0 120 0 C118.875 13.5 118.875 13.5 117.9375 18.75 C117.67259766 20.25820313 117.67259766 20.25820313 117.40234375 21.796875 C117.26957031 22.52390625 117.13679688 23.2509375 117 24 C116.34 24 115.68 24 115 24 C114.86464844 23.41992188 114.72929687 22.83984375 114.58984375 22.2421875 C113.20469171 17.2158274 111.68519397 13.3950948 107.34204102 10.31713867 C94.82231008 3.27617668 76.90495728 5.43994708 63.125 5.3125 C54.50375 5.209375 45.8825 5.10625 37 5 C37 25.46 37 45.92 37 67 C36.67 67 36.34 67 36 67 C35.67 65.35 35.34 63.7 35 62 C34.01 62.33 33.02 62.66 32 63 C29.3125 62.5625 29.3125 62.5625 27 62 C27.66 60.35 28.32 58.7 29 57 C31.31 57.33 33.62 57.66 36 58 C35.67 57.01 35.34 56.02 35 55 C29.94990405 54.06213918 29.94990405 54.06213918 25 55 C25 54.34 25 53.68 25 53 C23.39585785 54.18523997 23.39585785 54.18523997 22 56 C21.83312552 58.58354218 21.83312552 58.58354218 22 61 C21.67 61.33 21.34 61.66 21 62 C20.8916266 64.25785905 20.85368277 66.51911133 20.84228516 68.77954102 C20.83720444 69.48860092 20.83212372 70.19766083 20.82688904 70.9282074 C20.81616069 72.47402764 20.80755025 74.01986365 20.80076981 75.56570625 C20.7889995 78.01702643 20.76954789 80.46816893 20.74765015 82.91941833 C20.68599807 89.89128643 20.63212824 96.86314055 20.59863281 103.83520508 C20.5776075 108.09645365 20.54223196 112.35738535 20.49787521 116.61845207 C20.48376613 118.23900541 20.47500433 119.85961489 20.47182083 121.48022652 C20.43081088 140.37243672 20.43081088 140.37243672 15.39639282 145.6955719 C14.93558319 146.12603317 14.47477356 146.55649445 14 147 C13.34 146.67 12.68 146.34 12 146 C12.61875 145.319375 13.2375 144.63875 13.875 143.9375 C18.62698829 137.36857501 18.28873707 130.40590193 18.25878906 122.59204102 C18.2622937 121.46270142 18.26579834 120.33336182 18.26940918 119.1697998 C18.27818997 115.4477722 18.27238971 111.72593569 18.265625 108.00390625 C18.26697279 105.40990665 18.26891427 102.8159073 18.27142334 100.22190857 C18.27436974 94.78910683 18.2702847 89.35637646 18.26074219 83.92358398 C18.24986458 77.65867 18.25338123 71.39388627 18.264395 65.12897545 C18.27459481 59.08321317 18.27347652 53.03751417 18.26763153 46.99174309 C18.26629969 44.42776407 18.26792643 41.86378172 18.27259064 39.29980659 C18.27768447 35.71223343 18.26990494 32.12490828 18.25878906 28.53735352 C18.26283752 27.48307663 18.26688599 26.42879974 18.27105713 25.34257507 C18.39509816 15.14647676 18.39509816 15.14647676 13.625 6.625 C12.75875 6.08875 11.8925 5.5525 11 5 C10.38125 4.608125 9.7625 4.21625 9.125 3.8125 C6.14271573 2.67221484 3.15930439 2.36453512 0 2 C0 1.34 0 0.68 0 0 Z " fill="#FEF8A9" transform="translate(64,14)"/>
<path d="M0 0 C0.66 0.99 1.32 1.98 2 3 C-2.49797113 1.31326082 -6.72886302 -0.81673892 -11 -3 C-11 -2.34 -11 -1.68 -11 -1 C-12.485 -0.01 -12.485 -0.01 -14 1 C-12.61071336 4.10870081 -10.95864793 6.28387424 -8.625 8.75 C-0.37602304 17.97854298 0.88564 27.75030079 0.23535156 39.87353516 C-0.67357254 48.08590955 -4.39852601 55.27842539 -9 62 C-9.33 62.845625 -9.66 63.69125 -10 64.5625 C-11.20719742 67.50504371 -12.94008161 69.59676187 -15 72 C-14.05125 71.484375 -13.1025 70.96875 -12.125 70.4375 C-11.09375 69.963125 -10.0625 69.48875 -9 69 C-8.34 69.33 -7.68 69.66 -7 70 C-12.5354018 75.16969958 -18.7202872 78.57524482 -25.5 81.8125 C-26.29446533 82.19720459 -27.08893066 82.58190918 -27.9074707 82.97827148 C-33.21377064 85.44559453 -38.24919646 86.91309813 -44 88 C-44 87.34 -44 86.68 -44 86 C-42.99582031 85.55011719 -41.99164063 85.10023438 -40.95703125 84.63671875 C-24.7082443 77.10654951 -11.67990504 67.14333971 -4.8203125 50.0625 C-4.08526037 47.71033319 -3.48380046 45.41468266 -3 43 C-2.72929688 41.77023438 -2.72929688 41.77023438 -2.453125 40.515625 C-0.68714676 30.71140098 -2.47161527 21.67565691 -7.75 13.25 C-16.44159901 1.1795153 -28.7850004 -2.55369774 -43 -5 C-44.00675781 -5.18691406 -45.01351563 -5.37382813 -46.05078125 -5.56640625 C-67.18937609 -7.88726088 -88.39273187 -5.79434401 -109 -1 C-110.48412138 -0.68110901 -111.9685131 -0.36347448 -113.453125 -0.046875 C-141.58020031 6.11923913 -169.48803659 15.97823738 -195.76953125 27.67578125 C-196.41043701 27.95800537 -197.05134277 28.24022949 -197.71166992 28.53100586 C-199.53220134 29.33406534 -201.34826315 30.14723492 -203.1640625 30.9609375 C-204.56785156 31.47527344 -204.56785156 31.47527344 -206 32 C-206.66 31.67 -207.32 31.34 -208 31 C-207.505 30.01 -207.505 30.01 -207 29 C-206.01 29 -205.02 29 -204 29 C-203.505 28.01 -203.505 28.01 -203 27 C-209.4250375 29.01103168 -215.55813621 31.43284719 -221.703125 34.17578125 C-222.61109833 34.5776767 -223.51907166 34.97957214 -224.45455933 35.39364624 C-227.38864684 36.69488395 -230.31954511 38.00310397 -233.25 39.3125 C-234.25254822 39.75896881 -235.25509644 40.20543762 -236.2880249 40.66543579 C-253.02436269 48.12300846 -269.56517655 55.89997987 -286 64 C-289.70255047 65.82469034 -293.41070404 67.63685681 -297.125 69.4375 C-298.28153076 70.01407349 -298.28153076 70.01407349 -299.46142578 70.60229492 C-304.65953201 73.11348933 -304.65953201 73.11348933 -308 72 C-307.38705078 71.70867187 -306.77410156 71.41734375 -306.14257812 71.1171875 C-303.26094255 69.74641695 -300.380475 68.37320758 -297.5 67 C-296.53707031 66.54238281 -295.57414063 66.08476563 -294.58203125 65.61328125 C-289.45768121 63.16832993 -284.35605887 60.68595851 -279.2857666 58.13111877 C-270.27334943 53.58999057 -261.17300848 49.2691035 -252 45.0625 C-250.82562881 44.52382797 -250.82562881 44.52382797 -249.62753296 43.97427368 C-219.5764097 30.21916941 -189.35132177 17.49067393 -158 7 C-156.68701703 6.55686595 -155.37411085 6.11350432 -154.0612793 5.66992188 C-147.05822555 3.31035835 -140.04640588 1.02096763 -132.9375 -1 C-132.06681885 -1.24782227 -131.1961377 -1.49564453 -130.29907227 -1.75097656 C-91.56820429 -12.5730908 -36.19284267 -23.28390275 0 0 Z " fill="#F5E288" transform="translate(486,46)"/>
<path d="M0 0 C0 21.78 0 43.56 0 66 C-10.125 64.875 -10.125 64.875 -14.0625 63.4375 C-14.81660156 63.16808594 -15.57070312 62.89867187 -16.34765625 62.62109375 C-16.89292969 62.41613281 -17.43820313 62.21117187 -18 62 C-18.12655795 54.36468155 -18.21424963 46.72963249 -18.2746582 39.09350586 C-18.29983503 36.49477023 -18.33397866 33.89610562 -18.37719727 31.29760742 C-18.4377059 27.56671652 -18.46617877 23.83675997 -18.48828125 20.10546875 C-18.51408768 18.93976852 -18.5398941 17.7740683 -18.56648254 16.57304382 C-18.5668602 15.49214981 -18.56723785 14.4112558 -18.56762695 13.29760742 C-18.57873001 12.34496506 -18.58983307 11.39232269 -18.60127258 10.41081238 C-18 8 -18 8 -15.64103699 6.25556946 C-14.76949478 5.84123154 -13.89795258 5.42689362 -13 5 C-12.06800781 4.54238281 -11.13601562 4.08476563 -10.17578125 3.61328125 C-9.23089844 3.18402344 -8.28601563 2.75476563 -7.3125 2.3125 C-6.35988281 1.87550781 -5.40726563 1.43851562 -4.42578125 0.98828125 C-2 0 -2 0 0 0 Z " fill="#F3C752" transform="translate(243,103)"/>
<path d="M0 0 C4.64396462 1.32684703 8.02545752 3.29392852 12 6 C12.81082031 6.28746094 13.62164062 6.57492188 14.45703125 6.87109375 C20.01503024 9.33846964 23.70149967 15.55197787 25.9375 21.0625 C28.86282799 31.50226426 28.03498514 43.4216111 23 53 C16.775141 63.4984021 9.57534257 73.29926235 -2.4375 76.6875 C-2.953125 76.790625 -3.46875 76.89375 -4 77 C-3.4225 76.175 -2.845 75.35 -2.25 74.5 C-0.26006216 71.51160212 1.36363333 68.43629356 2.92578125 65.20703125 C3.69285884 63.63103548 4.48478902 62.06703744 5.29296875 60.51171875 C5.73253906 59.66222656 6.17210937 58.81273437 6.625 57.9375 C7.02976562 57.16277344 7.43453125 56.38804688 7.8515625 55.58984375 C12.31475996 45.52487806 12.81744353 32.69491198 9.1171875 22.24609375 C6.16815679 16.31709845 1.68874688 11.59600244 -3 7 C-2.34 5.68 -1.68 4.36 -1 3 C-0.34 3 0.32 3 1 3 C0.67 2.01 0.34 1.02 0 0 Z " fill="#D0972C" transform="translate(474,42)"/>
<path d="M0 0 C0.33 0 0.66 0 1 0 C3.41012198 14.1594666 0.76132395 25.82074585 -7 38 C-18.31841949 52.40703828 -35.69734323 59.41037732 -53.47021484 61.77001953 C-62.26484455 62.56953132 -71.18207341 62.2153677 -80 62 C-80 61.34 -80 60.68 -80 60 C-78.91203125 59.89042969 -77.8240625 59.78085938 -76.703125 59.66796875 C-58.36889012 57.73132752 -42.38191285 54.54425841 -29 41 C-28.13890625 40.23300781 -27.2778125 39.46601562 -26.390625 38.67578125 C-23.55265248 35.49929241 -22.50679969 32.72078763 -21.1875 28.6875 C-20.97158203 28.04232422 -20.75566406 27.39714844 -20.53320312 26.73242188 C-20.00883548 25.15931893 -19.50250633 23.58022203 -19 22 C-18.34 22 -17.68 22 -17 22 C-16.90332031 21.26136719 -16.80664062 20.52273437 -16.70703125 19.76171875 C-15.90614045 16.63337732 -14.83663798 15.1917384 -12.6875 12.8125 C-12.09324219 12.13832031 -11.49898438 11.46414062 -10.88671875 10.76953125 C-9.00506618 9.00475151 -7.30038172 8.11340437 -5 7 C-4.67 6.34 -4.34 5.68 -4 5 C-3.34 5 -2.68 5 -2 5 C-2 4.34 -2 3.68 -2 3 C-1.34 3 -0.68 3 0 3 C0 2.01 0 1.02 0 0 Z " fill="#ECB83E" transform="translate(445,78)"/>
<path d="M0 0 C5.04171093 4.80331129 8.94194723 9.8631984 9.5625 16.9375 C9.459375 17.741875 9.35625 18.54625 9.25 19.375 C8.59 19.375 7.93 19.375 7.25 19.375 C7.25 20.035 7.25 20.695 7.25 21.375 C6.59 21.375 5.93 21.375 5.25 21.375 C4.755 22.86 4.755 22.86 4.25 24.375 C3.3425 24.9525 2.435 25.53 1.5 26.125 C-3.09508201 29.30621062 -5.98092282 33.06776847 -7.75 38.375 C-8.41 38.375 -9.07 38.375 -9.75 38.375 C-9.89695312 39.2103125 -9.89695312 39.2103125 -10.046875 40.0625 C-11.12430295 45.56109779 -12.58792497 50.68252567 -15.75 55.375 C-16.74 56.035 -17.73 56.695 -18.75 57.375 C-17.74107518 54.85042578 -16.73049348 52.32656495 -15.71484375 49.8046875 C-15.37582031 48.96164063 -15.03679687 48.11859375 -14.6875 47.25 C-14.17509766 45.97769531 -14.17509766 45.97769531 -13.65234375 44.6796875 C-10.2444135 35.97545006 -10.08013715 22.88477971 -13.78125 14.12890625 C-17.5860267 7.24041941 -22.47545795 4.11580736 -29.7265625 1.72265625 C-34.66036039 0.37618153 -39.66529431 -0.17773422 -44.75 -0.625 C-44.42 -2.275 -44.09 -3.925 -43.75 -5.625 C-40.06261278 -5.79422465 -36.37507482 -5.95991801 -32.6875 -6.125 C-31.64916016 -6.17269531 -30.61082031 -6.22039063 -29.54101562 -6.26953125 C-8.63280593 -7.19878501 -8.63280593 -7.19878501 0 0 Z " fill="#FDFBBA" transform="translate(435.75,61.625)"/>
<path d="M0 0 C0 13.53 0 27.06 0 41 C-1.65 40.67 -3.3 40.34 -5 40 C-6.68496298 40.96885372 -8.35178756 41.96986723 -10 43 C-12.8125 43.1875 -12.8125 43.1875 -15 43 C-15.495 40.525 -15.495 40.525 -16 38 C-16.85777549 41.43110196 -16.96691464 43.61579877 -16 47 C-16.33 47.33 -16.66 47.66 -17 48 C-17.10208463 49.65597755 -17.13569779 51.31623206 -17.1418457 52.9753418 C-17.14888016 54.03702072 -17.15591461 55.09869965 -17.16316223 56.19255066 C-17.16732651 57.34975113 -17.17149078 58.5069516 -17.17578125 59.69921875 C-17.19898554 62.1295659 -17.22310312 64.55990446 -17.24804688 66.99023438 C-17.28314215 70.83721598 -17.31248737 74.6838838 -17.32592773 78.53100586 C-17.34140855 82.2333015 -17.38163131 85.93466847 -17.42578125 89.63671875 C-17.42387283 90.78379807 -17.42196442 91.93087738 -17.41999817 93.11271667 C-17.51542189 99.34725112 -17.71385243 103.31407785 -22 108 C-23.485 108.99 -23.485 108.99 -25 110 C-14.11 110 -3.22 110 8 110 C7.67 109.34 7.34 108.68 7 108 C8.7015625 108.4640625 8.7015625 108.4640625 10.4375 108.9375 C14.92461414 110.06931233 19.39707347 110.59511294 24 111 C24 111.33 24 111.66 24 112 C4.2 112 -15.6 112 -36 112 C-36 111.67 -36 111.34 -36 111 C-35.33613281 110.84144531 -34.67226563 110.68289062 -33.98828125 110.51953125 C-28.35741497 109.03166731 -24.75042716 107.71827933 -21 103 C-19.29805537 99.59611074 -19.81889488 95.70730593 -19.79467773 91.96044922 C-19.78477814 91.02381439 -19.77487854 90.08717957 -19.76467896 89.12216187 C-19.73301078 86.01636307 -19.70828552 82.91054896 -19.68359375 79.8046875 C-19.66302881 77.65519811 -19.64203247 75.50571281 -19.62062073 73.35623169 C-19.5653525 67.69109399 -19.51596419 62.02591951 -19.46777344 56.36071777 C-19.41759306 50.58289302 -19.36188894 44.80512187 -19.30664062 39.02734375 C-19.19900096 27.68494159 -19.09756891 16.34249295 -19 5 C-18.31147949 4.79721436 -17.62295898 4.59442871 -16.91357422 4.38549805 C-16.0113916 4.11777588 -15.10920898 3.85005371 -14.1796875 3.57421875 C-13.28491699 3.30955811 -12.39014648 3.04489746 -11.46826172 2.7722168 C-8.90361117 2.00975696 -8.90361117 2.00975696 -6.125 0.8125 C-4 0 -4 0 0 0 Z " fill="#FEFBBC" transform="translate(356,72)"/>
<path d="M0 0 C15.51 0 31.02 0 47 0 C45 2 45 2 41.625 2.3125 C37.87186974 2.66525404 37.87186974 2.66525404 35.625 5.4375 C32.85410894 9.80698205 32.78978857 13.21199669 32.68359375 18.2890625 C32.66281265 19.10748627 32.64203156 19.92591003 32.62062073 20.76913452 C32.55515188 23.38766966 32.49625274 26.00630639 32.4375 28.625 C32.39431224 30.39844807 32.35069786 32.17188581 32.30664062 33.9453125 C32.19947324 38.29677046 32.09819831 42.64833077 32 47 C29.5705484 43.3558226 29.83820425 41.28758728 30 37 C28.081875 37.0309375 28.081875 37.0309375 26.125 37.0625 C22.25 37.125 22.25 37.125 20 36 C19.34 36.66 18.68 37.32 18 38 C18.3185177 40.10820797 18.3185177 40.10820797 19 42 C18.34 42 17.68 42 17 42 C17 51.24 17 60.48 17 70 C16.67 70 16.34 70 16 70 C15.98786972 68.97095802 15.98786972 68.97095802 15.97549438 67.92112732 C15.88929114 60.76681298 15.78978051 53.61277067 15.68261719 46.45874023 C15.64332411 43.79045663 15.60952379 41.1222642 15.578125 38.45385742 C15.53234788 34.61358618 15.47437301 30.7736609 15.4140625 26.93359375 C15.40251129 25.74479111 15.39096008 24.55598846 15.37905884 23.3311615 C15.27580691 17.50784155 14.97732637 12.49190059 13 7 C12.67 6.01 12.34 5.02 12 4 C9.20827761 2.96683512 9.20827761 2.96683512 5.9375 2.3125 C4.83277344 2.06113281 3.72804687 1.80976562 2.58984375 1.55078125 C1.73519531 1.36902344 0.88054687 1.18726563 0 1 C0 0.67 0 0.34 0 0 Z " fill="#FDF8A5" transform="translate(146,55)"/>
<path d="M0 0 C15.51 0 31.02 0 47 0 C43 2 43 2 39.9375 2.8125 C36.17838839 4.33214086 35.64929418 5.31278485 34 9 C33.50792574 12.26604727 33.39859924 15.51366929 33.3125 18.8125 C33.27833984 19.69615234 33.24417969 20.57980469 33.20898438 21.49023438 C33.12689567 23.65972167 33.06176121 25.8298389 33 28 C24.45046574 32.31046732 24.45046574 32.31046732 20.125 34.25 C19.38507813 34.58515625 18.64515625 34.9203125 17.8828125 35.265625 C16 36 16 36 14 36 C13.98541748 35.13721436 13.97083496 34.27442871 13.95581055 33.38549805 C13.89472246 30.18150353 13.82056451 26.97815375 13.73754883 23.7746582 C13.70431451 22.38870623 13.67627774 21.00261939 13.65356445 19.61645508 C13.61999383 17.62293157 13.56612 15.62978259 13.51171875 13.63671875 C13.48553467 12.43748779 13.45935059 11.23825684 13.43237305 10.00268555 C13.24642421 7.02485612 13.24642421 7.02485612 11.62304688 5.14453125 C9.45662595 3.61682648 7.36404047 3.00837467 4.8125 2.3125 C3.91144531 2.06113281 3.01039063 1.80976562 2.08203125 1.55078125 C1.39496094 1.36902344 0.70789063 1.18726563 0 1 C0 0.67 0 0.34 0 0 Z " fill="#FCF599" transform="translate(210,55)"/>
<path d="M0 0 C1.01900391 1.12535156 1.01900391 1.12535156 2.05859375 2.2734375 C-2.43937738 0.58669832 -6.67026927 -1.54330142 -10.94140625 -3.7265625 C-10.94140625 -3.0665625 -10.94140625 -2.4065625 -10.94140625 -1.7265625 C-11.93140625 -1.0665625 -12.92140625 -0.4065625 -13.94140625 0.2734375 C-12.55211961 3.38213831 -10.90005418 5.55731174 -8.56640625 8.0234375 C-0.31742929 17.25198048 0.94423375 27.02373829 0.29394531 39.14697266 C-0.61497879 47.35934705 -4.33993226 54.55186289 -8.94140625 61.2734375 C-9.27140625 62.1190625 -9.60140625 62.9646875 -9.94140625 63.8359375 C-11.14860367 66.77848121 -12.88148786 68.87019937 -14.94140625 71.2734375 C-13.99265625 70.7578125 -13.04390625 70.2421875 -12.06640625 69.7109375 C-11.03515625 69.2365625 -10.00390625 68.7621875 -8.94140625 68.2734375 C-8.28140625 68.6034375 -7.62140625 68.9334375 -6.94140625 69.2734375 C-12.47680805 74.44313708 -18.66169345 77.84868232 -25.44140625 81.0859375 C-26.63310425 81.66299438 -26.63310425 81.66299438 -27.84887695 82.25170898 C-33.15517689 84.71903203 -38.19060271 86.18653563 -43.94140625 87.2734375 C-43.94140625 86.6134375 -43.94140625 85.9534375 -43.94140625 85.2734375 C-42.93722656 84.82355469 -41.93304688 84.37367188 -40.8984375 83.91015625 C-24.64965055 76.37998701 -11.62131129 66.41677721 -4.76171875 49.3359375 C-4.02666662 46.98377069 -3.42520671 44.68812016 -2.94140625 42.2734375 C-2.7609375 41.45359375 -2.58046875 40.63375 -2.39453125 39.7890625 C-0.62855301 29.98483848 -2.41302152 20.94909441 -7.69140625 12.5234375 C-16.38300526 0.4529528 -28.72640665 -3.28026024 -42.94140625 -5.7265625 C-45.27322996 -6.07029747 -47.60621408 -6.40651078 -49.94140625 -6.7265625 C-49.94140625 -7.0565625 -49.94140625 -7.3865625 -49.94140625 -7.7265625 C-54.51060822 -8.61776908 -58.92558415 -8.882271 -63.56640625 -8.8515625 C-64.64619751 -8.84866211 -64.64619751 -8.84866211 -65.74780273 -8.84570312 C-74.82386351 -8.77607325 -83.88231271 -8.25118426 -92.94140625 -7.7265625 C-92.94140625 -8.0565625 -92.94140625 -8.3865625 -92.94140625 -8.7265625 C-67.32664207 -14.16414261 -20.70145328 -20.57818719 0 0 Z " fill="#F6D160" transform="translate(485.94140625,46.7265625)"/>
<path d="M0 0 C28.05 0 56.1 0 85 0 C83.875 12.375 83.875 12.375 82.9375 17.6875 C82.76089844 18.70199219 82.58429688 19.71648438 82.40234375 20.76171875 C82.26957031 21.50035156 82.13679688 22.23898438 82 23 C81.34 23 80.68 23 80 23 C79.86464844 22.41992188 79.72929687 21.83984375 79.58984375 21.2421875 C78.20480407 16.21623511 76.68496509 12.39680778 72.34399414 9.31713867 C59.90880563 2.32954967 42.33945721 4.43914826 28.625 4.3125 C26.13539928 4.27927291 23.64581514 4.24477841 21.15625 4.20898438 C15.1042804 4.12470134 9.05229309 4.05609771 3 4 C3 3.34 3 2.68 3 2 C2.01 1.67 1.02 1.34 0 1 C0 0.67 0 0.34 0 0 Z " fill="#F0CB57" transform="translate(99,15)"/>
<path d="M0 0 C0.66 0.33 1.32 0.66 2 1 C0.61491556 4.22486831 -0.90592505 5.99382399 -3.625 8.1875 C-11.07365998 14.53717736 -17.89561294 20.93797444 -19.2734375 30.99609375 C-19.52913776 36.04125649 -18.50565288 40.60097783 -16 45 C-10.70305285 50.53771747 -5.34430479 52.02554995 2.125 52.4375 C9.78326577 52.28941199 18.66984164 49.83276347 24.1875 44.25 C24.785625 43.5075 25.38375 42.765 26 42 C26.66 41.67 27.32 41.34 28 41 C27.10255055 46.11546186 23.94856836 48.84993619 20 52 C11.61571951 56.70647006 3.56606676 57.94779002 -6 57 C-13.4396768 54.80097951 -18.66900122 50.35128975 -23 44 C-25.88778536 38.22442927 -25.93561904 31.56704758 -24.3125 25.37890625 C-21.42107906 17.46364143 -17.30481479 12.17417988 -10 8 C-7.8792623 6.21972889 -5.8211101 4.38280342 -3.76953125 2.5234375 C-2 1 -2 1 0 0 Z " fill="#F1CF5F" transform="translate(290,90)"/>
<path d="M0 0 C-0.99 0.99 -1.98 1.98 -3 3 C-3.99 2.505 -3.99 2.505 -5 2 C-5 3.32 -5 4.64 -5 6 C-5.67353516 6.32162109 -6.34707031 6.64324219 -7.04101562 6.97460938 C-19.44530631 12.90194937 -31.83529815 18.84610356 -44.10546875 25.046875 C-46.16028791 26.08063969 -48.22019666 27.10372402 -50.28125 28.125 C-50.99724365 28.48045898 -51.7132373 28.83591797 -52.45092773 29.20214844 C-53.80387798 29.87353963 -55.15749673 30.54358636 -56.51196289 31.21191406 C-59.68931353 32.79248708 -62.74815971 34.44619195 -65.77734375 36.296875 C-66.84082031 36.85890625 -67.90429688 37.4209375 -69 38 C-69.99 37.67 -70.98 37.34 -72 37 C-71.195625 36.4225 -70.39125 35.845 -69.5625 35.25 C-66.82505318 32.84638816 -66.74685701 32.30750963 -66 29 C-64.125 27.375 -64.125 27.375 -62 26 C-61.01 25.34 -60.02 24.68 -59 24 C-57.37018424 23.18747825 -55.72618129 22.40321127 -54.07421875 21.63671875 C-53.06367432 21.1677417 -52.05312988 20.69876465 -51.01196289 20.21557617 C-40.23057891 15.25995582 -29.43089875 10.34652855 -18.56826782 5.57119751 C-17.23267618 4.98276499 -15.89849752 4.39111472 -14.56576538 3.79623413 C-12.69503219 2.96261635 -10.81919647 2.14179138 -8.94140625 1.32421875 C-7.86576416 0.85072998 -6.79012207 0.37724121 -5.68188477 -0.1105957 C-3 -1 -3 -1 0 0 Z " fill="#F2C447" transform="translate(284,73)"/>
<path d="M0 0 C0.66 0 1.32 0 2 0 C0.19575533 11.14982662 -6.67501255 20.6381252 -15 28 C-17.80859375 29.3046875 -17.80859375 29.3046875 -20 30 C-20 28.35 -20 26.7 -20 25 C-20.99 25.33 -21.98 25.66 -23 26 C-23.99 25.67 -24.98 25.34 -26 25 C-26.99 25.33 -27.98 25.66 -29 26 C-31.60915952 26.23456373 -34.19816022 26.42287278 -36.8125 26.5625 C-37.95537476 26.62401245 -37.95537476 26.62401245 -39.12133789 26.68676758 C-49.40532685 27.20509865 -59.49643848 27.19283086 -69.75 26.1875 C-70.93130493 26.08248169 -70.93130493 26.08248169 -72.13647461 25.9753418 C-74.359375 25.73046875 -74.359375 25.73046875 -78 25 C-78.66 24.01 -79.32 23.02 -80 22 C-78.824375 22.144375 -77.64875 22.28875 -76.4375 22.4375 C-75.77621094 22.51871094 -75.11492187 22.59992188 -74.43359375 22.68359375 C-72.61785398 22.91966907 -70.80840065 23.20507316 -69.00390625 23.515625 C-49.85087674 26.240785 -29.35071478 25.12154703 -13 14 C-7.64159922 9.87180217 -3.57104646 5.71367433 0 0 Z " fill="#F1DB92" transform="translate(323,153)"/>
<path d="M0 0 C0.66 0 1.32 0 2 0 C2.21921738 6.46691276 1.56880781 12.44419894 0.51171875 18.82421875 C-0.1407351 22.87341706 -0.58512222 26.92036845 -1 31 C-1.99 30.67 -2.98 30.34 -4 30 C-4.75673983 28.28910995 -5.50796212 26.57509656 -6.20703125 24.83984375 C-8.61051293 19.26329265 -12.08074228 17.18465453 -17.41503906 14.8894043 C-21.72670626 13.40589432 -26.03695947 13.0687468 -30.5625 12.75 C-31.93245117 12.63398437 -31.93245117 12.63398437 -33.33007812 12.515625 C-35.55264286 12.32944157 -37.77527366 12.15783206 -40 12 C-39.67 11.01 -39.34 10.02 -39 9 C-38.28457031 8.98018066 -37.56914063 8.96036133 -36.83203125 8.93994141 C-33.5543514 8.84400673 -30.27724999 8.73460702 -27 8.625 C-25.87464844 8.5940625 -24.74929687 8.563125 -23.58984375 8.53125 C-11.2684405 8.2116696 -11.2684405 8.2116696 -1 2 C-0.67 1.34 -0.34 0.68 0 0 Z " fill="#FEF490" transform="translate(141,78)"/>
<path d="M0 0 C9.73258543 0.9585122 18.98701487 5.8271306 25.57421875 13.1171875 C33.25059407 23.25420916 35.50559351 34.4611834 34 47 C32.38410051 54.44474455 29.2773931 60.75182454 25 67 C24.67 67.845625 24.34 68.69125 24 69.5625 C22.79280258 72.50504371 21.05991839 74.59676187 19 77 C20.423125 76.2265625 20.423125 76.2265625 21.875 75.4375 C22.90625 74.963125 23.9375 74.48875 25 74 C25.99 74.495 25.99 74.495 27 75 C21.4645982 80.16969958 15.2797128 83.57524482 8.5 86.8125 C7.70553467 87.19720459 6.91106934 87.58190918 6.0925293 87.97827148 C0.78622936 90.44559453 -4.24919646 91.91309813 -10 93 C-10 92.34 -10 91.68 -10 91 C-8.99582031 90.55011719 -7.99164063 90.10023438 -6.95703125 89.63671875 C9.2917557 82.10654951 22.32009496 72.14333971 29.1796875 55.0625 C29.91473963 52.71033319 30.51619954 50.41468266 31 48 C31.18046875 47.18015625 31.3609375 46.3603125 31.546875 45.515625 C33.31285324 35.71140098 31.52838473 26.67565691 26.25 18.25 C19.43178691 8.78118574 10.59473735 5.20729642 0 1 C0 0.67 0 0.34 0 0 Z " fill="#F0D169" transform="translate(452,41)"/>
<path d="M0 0 C0.66 0.33 1.32 0.66 2 1 C2 8.92 2 16.84 2 25 C1.67 25 1.34 25 1 25 C0.505 22.525 0.505 22.525 0 20 C-0.99 20.33 -1.98 20.66 -3 21 C-5.6875 20.5625 -5.6875 20.5625 -8 20 C-7.34 18.35 -6.68 16.7 -6 15 C-3.69 15.33 -1.38 15.66 1 16 C0.67 15.01 0.34 14.02 0 13 C-5.05009595 12.06213918 -5.05009595 12.06213918 -10 13 C-10 12.34 -10 11.68 -10 11 C-11.60414215 12.18523997 -11.60414215 12.18523997 -13 14 C-13.16687448 16.58354218 -13.16687448 16.58354218 -13 19 C-13.33 19.33 -13.66 19.66 -14 20 C-14.1083734 22.25785905 -14.14631723 24.51911133 -14.15771484 26.77954102 C-14.16279556 27.48860092 -14.16787628 28.19766083 -14.17311096 28.9282074 C-14.18383931 30.47402764 -14.19244975 32.01986365 -14.19923019 33.56570625 C-14.2110005 36.01702643 -14.23045211 38.46816893 -14.25234985 40.91941833 C-14.31400193 47.89128643 -14.36787176 54.86314055 -14.40136719 61.83520508 C-14.4223925 66.09645365 -14.45776804 70.35738535 -14.50212479 74.61845207 C-14.51623387 76.23900541 -14.52499567 77.85961489 -14.52817917 79.48022652 C-14.56918912 98.37243672 -14.56918912 98.37243672 -19.60360718 103.6955719 C-20.29482162 104.34126381 -20.29482162 104.34126381 -21 105 C-21.66 104.67 -22.32 104.34 -23 104 C-22.38125 103.319375 -21.7625 102.63875 -21.125 101.9375 C-17.12514292 96.40828581 -16.70384041 90.52859002 -16.71289062 83.88085938 C-16.70605759 83.10104202 -16.69922455 82.32122467 -16.69218445 81.51777649 C-16.67866751 79.83620551 -16.66956881 78.15459427 -16.66447449 76.47297668 C-16.65613554 73.80715886 -16.63558562 71.14167547 -16.61193848 68.47595215 C-16.56387772 62.81735147 -16.53083279 57.15871737 -16.5 51.5 C-16.46425272 44.9393303 -16.42225656 38.37882589 -16.36405945 31.8183136 C-16.34408331 29.1999385 -16.33569113 26.58169199 -16.32775879 23.96325684 C-16.3147793 22.34854675 -16.30125796 20.73384089 -16.28710938 19.11914062 C-16.28858223 18.03727226 -16.28858223 18.03727226 -16.29008484 16.93354797 C-16.23298467 12.23301913 -15.58941354 8.38617847 -14 4 C-13.34 3.67 -12.68 3.34 -12 3 C-12 3.99 -12 4.98 -12 6 C-9.03 6.33 -6.06 6.66 -3 7 C-2.67 5.68 -2.34 4.36 -2 3 C-1.34 3 -0.68 3 0 3 C0 2.01 0 1.02 0 0 Z " fill="#F3DD83" transform="translate(99,56)"/>
<path d="M0 0 C0 3 0 3 -1.4375 5.375 C-3.01647713 8.02768157 -3.48243667 9.99511773 -4 13 C-2.10042499 12.09111244 -0.20549214 11.17251969 1.6875 10.25 C2.74324219 9.73953125 3.79898438 9.2290625 4.88671875 8.703125 C7.90003083 7.05468828 10.39287648 5.22500338 13 3 C13.99 3.495 13.99 3.495 15 4 C-0.29998235 17.6809366 -19.65621935 21.21678777 -39.5 21.0625 C-40.60859375 21.05798828 -41.7171875 21.05347656 -42.859375 21.04882812 C-45.57297399 21.03713158 -48.28645761 21.02074086 -51 21 C-51 20.34 -51 19.68 -51 19 C-49.36804688 18.83564453 -49.36804688 18.83564453 -47.703125 18.66796875 C-29.38562767 16.7330955 -13.36449137 13.57146358 0 0 Z " fill="#F6D964" transform="translate(416,119)"/>
<path d="M0 0 C0.33 0 0.66 0 1 0 C1 22.11 1 44.22 1 67 C9.25 67 17.5 67 26 67 C26 67.33 26 67.66 26 68 C21.38 68.33 16.76 68.66 12 69 C11.67 69.99 11.34 70.98 11 72 C7.7 72 4.4 72 1 72 C1 92.13 1 112.26 1 133 C-1.13903314 128.72193371 -1.2695035 126.64066643 -1.31884766 121.93652344 C-1.33391609 120.88226166 -1.33391609 120.88226166 -1.34928894 119.80670166 C-1.38010119 117.49093418 -1.39715036 115.17528221 -1.4140625 112.859375 C-1.43277575 111.25082405 -1.45234929 109.6422829 -1.4727478 108.03375244 C-1.52405851 103.8055194 -1.56368985 99.57725454 -1.60089111 95.34887695 C-1.64093744 91.03198379 -1.69202691 86.71522289 -1.7421875 82.3984375 C-1.83893422 73.93238204 -1.92334294 65.46626108 -2 57 C-1.67 57 -1.34 57 -1 57 C-0.67 38.19 -0.34 19.38 0 0 Z " fill="#E5B553" transform="translate(101,19)"/>
<path d="M0 0 C-1.2065625 0.5878125 -1.2065625 0.5878125 -2.4375 1.1875 C-5.22376726 2.74051449 -5.22376726 2.74051449 -5.625 5.5 C-5.810625 6.7375 -5.810625 6.7375 -6 8 C-7.46557382 9.8843092 -8.67893349 10.84188337 -10.81640625 11.89453125 C-13.21015457 13.1063931 -15.37744661 14.53579584 -17.625 16 C-22.61175374 19.04251344 -27.23968827 20.28915302 -33 21 C-33.66 19.68 -34.32 18.36 -35 17 C-36.97536745 17.34786708 -36.97536745 17.34786708 -39 18 C-39.33 18.66 -39.66 19.32 -40 20 C-42.0625 20.625 -42.0625 20.625 -44 21 C-44.33 20.34 -44.66 19.68 -45 19 C-44.29617187 18.67837891 -43.59234375 18.35675781 -42.8671875 18.02539062 C-39.57679951 16.51980186 -36.2881696 15.01042761 -33 13.5 C-31.81784912 12.95770752 -30.63569824 12.41541504 -29.41772461 11.85668945 C-22.06169011 8.46503301 -14.76664314 4.99257006 -7.63476562 1.1484375 C-3.32078111 -1.10692704 -3.32078111 -1.10692704 0 0 Z " fill="#DAA02E" transform="translate(223,100)"/>
<path d="M0 0 C2.63183484 1.72430559 2.96429365 2.87090782 3.8125 5.9375 C4.01631347 9.26645337 3.85599308 10.30233565 2 13 C-0.42578125 14.30078125 -0.42578125 14.30078125 -3.3125 15.3125 C-4.25738281 15.65925781 -5.20226562 16.00601563 -6.17578125 16.36328125 C-9.22719578 17.05122118 -11.04388395 16.97839593 -14 16 C-15.54863982 12.90272037 -14.3194397 10.75867742 -13.375 7.5 C-13.05273438 6.3346875 -12.73046875 5.169375 -12.3984375 3.96875 C-11 1 -11 1 -8.546875 -0.41796875 C-5.33069867 -1.15295383 -3.16762883 -0.89519945 0 0 Z " fill="#C45911" transform="translate(470,153)"/>
<path d="M0 0 C0.33 0 0.66 0 1 0 C2.76798571 10.38691605 2.2814468 19.2138359 -2 29 C-3.16191359 25.51425922 -2.49739343 23.72870045 -1.546875 20.2734375 C-0.65398604 16.56157053 -0.33398937 12.79693174 0 9 C-0.78375 9.495 -1.5675 9.99 -2.375 10.5 C-5 12 -5 12 -7 12 C-7.28875 12.5775 -7.5775 13.155 -7.875 13.75 C-8.5750124 15.1500248 -9.28209756 16.54656402 -10 17.9375 C-11.12113992 20.24985108 -12.06884819 22.60560963 -13 25 C-13.66 25 -14.32 25 -15 25 C-15 25.66 -15 26.32 -15 27 C-16.98 27.99 -18.96 28.98 -21 30 C-20.34 27.36 -19.68 24.72 -19 22 C-18.34 22 -17.68 22 -17 22 C-16.90332031 21.26136719 -16.80664062 20.52273437 -16.70703125 19.76171875 C-15.90614045 16.63337732 -14.83663798 15.1917384 -12.6875 12.8125 C-12.09324219 12.13832031 -11.49898438 11.46414062 -10.88671875 10.76953125 C-9.00506618 9.00475151 -7.30038172 8.11340437 -5 7 C-4.67 6.34 -4.34 5.68 -4 5 C-3.34 5 -2.68 5 -2 5 C-2 4.34 -2 3.68 -2 3 C-1.34 3 -0.68 3 0 3 C0 2.01 0 1.02 0 0 Z " fill="#F4CA51" transform="translate(445,78)"/>
<path d="M0 0 C0.9499585 -0.00531738 1.89991699 -0.01063477 2.87866211 -0.01611328 C9.55361499 0.05361499 9.55361499 0.05361499 11.8125 2.3125 C4.2225 2.3125 -3.3675 2.3125 -11.1875 2.3125 C-11.5175 3.9625 -11.8475 5.6125 -12.1875 7.3125 C-16.14465197 7.56655147 -20.1029685 7.78651788 -24.0625 8 C-25.75439453 8.10924805 -25.75439453 8.10924805 -27.48046875 8.22070312 C-29.09501953 8.30288086 -29.09501953 8.30288086 -30.7421875 8.38671875 C-31.73718262 8.44432373 -32.73217773 8.50192871 -33.75732422 8.5612793 C-34.55928223 8.47918213 -35.36124023 8.39708496 -36.1875 8.3125 C-36.8475 7.3225 -37.5075 6.3325 -38.1875 5.3125 C-26.90436669 0.00550478 -12.22658316 0.03439264 0 0 Z " fill="#F7ECB5" transform="translate(403.1875,53.6875)"/>
<path d="M0 0 C2.35448165 2.55068845 2.98327924 3.71017358 3.1875 7.25 C3.0946875 8.61125 3.0946875 8.61125 3 10 C2.34 10 1.68 10 1 10 C1 10.66 1 11.32 1 12 C0.34 12 -0.32 12 -1 12 C-1.33 12.99 -1.66 13.98 -2 15 C-2.9075 15.5775 -3.815 16.155 -4.75 16.75 C-9.34508201 19.93121062 -12.23092282 23.69276847 -14 29 C-14.66 29 -15.32 29 -16 29 C-16.09796875 29.556875 -16.1959375 30.11375 -16.296875 30.6875 C-17.37430295 36.18609779 -18.83792497 41.30752567 -22 46 C-22.99 46.66 -23.98 47.32 -25 48 C-23.99107518 45.47542578 -22.98049348 42.95156495 -21.96484375 40.4296875 C-21.62582031 39.58664063 -21.28679687 38.74359375 -20.9375 37.875 C-20.59589844 37.02679688 -20.25429688 36.17859375 -19.90234375 35.3046875 C-18.2284976 31.02949603 -17.73173567 27.39416968 -17.4375 22.8125 C-17.35371094 21.54019531 -17.26992188 20.26789063 -17.18359375 18.95703125 C-17.12300781 17.98121094 -17.06242187 17.00539063 -17 16 C-16.67 16 -16.34 16 -16 16 C-15.67 17.65 -15.34 19.3 -15 21 C-13.68 18.69 -12.36 16.38 -11 14 C-10.34 14 -9.68 14 -9 14 C-8.690625 13.1028125 -8.690625 13.1028125 -8.375 12.1875 C-6.49073918 9.18981233 -4.18867916 8.38638224 -1 7 C-1 5.68 -1 4.36 -1 3 C-0.67 2.01 -0.34 1.02 0 0 Z " fill="#F7E489" transform="translate(442,71)"/>
<path d="M0 0 C39.6 0 79.2 0 120 0 C120 0.33 120 0.66 120 1 C85.02 1.33 50.04 1.66 14 2 C14.33 2.99 14.66 3.98 15 5 C14.01 5.495 14.01 5.495 13 6 C11.6696875 5.319375 11.6696875 5.319375 10.3125 4.625 C6.79084238 2.89739438 3.87888079 2.38788808 0 2 C0 1.34 0 0.68 0 0 Z " fill="#F0DE94" transform="translate(64,14)"/>
<path d="M0 0 C11.37282841 0.16270141 22.54051928 2.49964106 31.875 9.25 C32.535 10.24 33.195 11.23 33.875 12.25 C29.37702887 10.56326082 25.14613698 8.43326108 20.875 6.25 C20.875 6.91 20.875 7.57 20.875 8.25 C19.24873596 9.63232443 17.5824998 10.96937515 15.875 12.25 C14.94558594 11.7446875 14.01617187 11.239375 13.05859375 10.71875 C11.81029103 10.06174857 10.56157051 9.40554055 9.3125 8.75 C8.70341797 8.41613281 8.09433594 8.08226562 7.46679688 7.73828125 C3.11484839 5.48171537 -0.12085571 4.88934095 -5.125 5.25 C-4.465 4.59 -3.805 3.93 -3.125 3.25 C-3.785 2.59 -4.445 1.93 -5.125 1.25 C-3.57714001 -0.29785999 -2.15970872 0.04276651 0 0 Z " fill="#EDBC47" transform="translate(454.125,36.75)"/>
<path d="M0 0 C28.05 0 56.1 0 85 0 C84 11 84 11 82 14 C82.33 10.04 82.66 6.08 83 2 C67.49 2 51.98 2 36 2 C36 2.33 36 2.66 36 3 C31.35526018 3.07416067 26.71086501 3.12860615 22.06567383 3.16479492 C20.48553464 3.17988094 18.90543731 3.2003525 17.32543945 3.22631836 C15.05409415 3.26271126 12.78330241 3.27972762 10.51171875 3.29296875 C9.45219246 3.31619453 9.45219246 3.31619453 8.3712616 3.33988953 C6.36987305 3.34057617 6.36987305 3.34057617 3 3 C2.01 2.01 1.02 1.02 0 0 Z " fill="#FCE061" transform="translate(99,15)"/>
<path d="M0 0 C0.94875 0.350625 1.8975 0.70125 2.875 1.0625 C0.55015262 3.38734738 -1.2429997 3.96927722 -4.3125 5.125 C-10.33376568 7.54516974 -15.68036736 10.64166989 -21.13549805 14.11547852 C-25.82691685 17.0625 -25.82691685 17.0625 -29.125 17.0625 C-28.795 16.4025 -28.465 15.7425 -28.125 15.0625 C-29.56452597 16.16402406 -31.00154071 17.2688304 -32.4375 18.375 C-33.23800781 18.98988281 -34.03851563 19.60476562 -34.86328125 20.23828125 C-36.75201374 21.76166307 -38.45577636 23.30684407 -40.125 25.0625 C-40.785 24.7325 -41.445 24.4025 -42.125 24.0625 C-32.10396552 12.84848523 -18.49036449 6.4517962 -5.125 0.0625 C-3.125 -0.9375 -3.125 -0.9375 0 0 Z " fill="#F7EBAB" transform="translate(318.125,75.9375)"/>
<path d="M0 0 C0.33 0 0.66 0 1 0 C1 18.81 1 37.62 1 57 C-9 62 -9 62 -11 62 C-11 62.66 -11 63.32 -11 64 C-11.99 64.495 -11.99 64.495 -13 65 C-12.34 65.66 -11.68 66.32 -11 67 C-19.05364285 67.33608711 -25.49783264 67.0517291 -33 64 C-33 63.67 -33 63.34 -33 63 C-31.67548828 62.94392578 -31.67548828 62.94392578 -30.32421875 62.88671875 C-19.49869694 62.29369876 -10.95873929 60.26803112 -1 56 C-0.67 37.52 -0.34 19.04 0 0 Z " fill="#E4C585" transform="translate(161,69)"/>
<path d="M0 0 C-0.04296875 1.81640625 -0.04296875 1.81640625 -1 4 C-3.4666023 5.18627491 -5.73169499 6.08731791 -8.3125 6.9375 C-9.77927296 7.45264492 -11.24541499 7.96958963 -12.7109375 8.48828125 C-13.43893555 8.74174316 -14.16693359 8.99520508 -14.91699219 9.25634766 C-22.20308708 11.85754844 -29.28654618 15.0532511 -36.2578125 18.3984375 C-36.83273437 18.59695312 -37.40765625 18.79546875 -38 19 C-38.66 18.67 -39.32 18.34 -40 18 C-39.67 17.34 -39.34 16.68 -39 16 C-38.01 16 -37.02 16 -36 16 C-35.83113281 15.40316406 -35.66226562 14.80632812 -35.48828125 14.19140625 C-33.22181526 10.85416893 -29.86716464 10.15313275 -26.1875 8.9375 C-20.20318725 6.8957933 -15.28577662 4.52385108 -10 1 C-6.71736127 0.31097088 -3.35497878 0 0 0 Z " fill="#FAEC84" transform="translate(318,59)"/>
<path d="M0 0 C0.33 0 0.66 0 1 0 C1.10161289 6.58352441 1.1715547 13.16684577 1.21972656 19.75097656 C1.23981316 21.98966021 1.2670878 24.22829158 1.30175781 26.46679688 C1.35040464 29.68893349 1.37299874 32.91037501 1.390625 36.1328125 C1.41127014 37.12991241 1.43191528 38.12701233 1.45318604 39.15432739 C1.45509617 45.10065209 0.9895005 48.48907269 -3 53 C-3.99 53.66 -4.98 54.32 -6 55 C4.89 55 15.78 55 27 55 C26.67 54.34 26.34 53.68 26 53 C27.134375 53.309375 28.26875 53.61875 29.4375 53.9375 C33.92461414 55.06931233 38.39707347 55.59511294 43 56 C43 56.33 43 56.66 43 57 C23.2 57 3.4 57 -17 57 C-17 56.67 -17 56.34 -17 56 C-16.33613281 55.84144531 -15.67226563 55.68289062 -14.98828125 55.51953125 C-9.35741497 54.03166731 -5.75042716 52.71827933 -2 48 C-0.82440785 45.6488157 -0.84483537 44.17282086 -0.79467773 41.55029297 C-0.77473251 40.62948944 -0.75478729 39.70868591 -0.73423767 38.75997925 C-0.71752518 37.76410797 -0.70081268 36.76823669 -0.68359375 35.7421875 C-0.66281265 34.72399933 -0.64203156 33.70581116 -0.62062073 32.6567688 C-0.55510534 29.39624945 -0.49623098 26.13564794 -0.4375 22.875 C-0.39431668 20.66796017 -0.35070245 18.46092872 -0.30664062 16.25390625 C-0.19942195 10.83602499 -0.09765926 5.41806154 0 0 Z " fill="#F9E479" transform="translate(337,127)"/>
<path d="M0 0 C-0.99 0.99 -1.98 1.98 -3 3 C-3.66 2.67 -4.32 2.34 -5 2 C-5 3.32 -5 4.64 -5 6 C-5.71542969 6.34256836 -6.43085938 6.68513672 -7.16796875 7.03808594 C-10.44564893 8.60802266 -13.72282776 10.17900327 -17 11.75 C-18.12535156 12.28882812 -19.25070312 12.82765625 -20.41015625 13.3828125 C-21.51230469 13.91132812 -22.61445313 14.43984375 -23.75 14.984375 C-24.82378906 15.49806641 -25.89757812 16.01175781 -27.00390625 16.54101562 C-29.59160213 17.80112568 -32.13986975 19.11481291 -34.6875 20.453125 C-35.780625 20.96359375 -36.87375 21.4740625 -38 22 C-38.66 21.67 -39.32 21.34 -40 21 C-37.54429825 19.66161267 -35.08570084 18.32913768 -32.625 17 C-31.92632812 16.6184375 -31.22765625 16.236875 -30.5078125 15.84375 C-25.2265625 13 -25.2265625 13 -23 13 C-23 12.01 -23 11.02 -23 10 C-23.99 9.67 -24.98 9.34 -26 9 C-22.23605994 7.29680933 -18.46286675 5.61519123 -14.6875 3.9375 C-13.61564453 3.45216797 -12.54378906 2.96683594 -11.43945312 2.46679688 C-10.41142578 2.01240234 -9.38339844 1.55800781 -8.32421875 1.08984375 C-7.37635498 0.66566162 -6.42849121 0.24147949 -5.4519043 -0.19555664 C-3 -1 -3 -1 0 0 Z " fill="#F9D95A" transform="translate(284,73)"/>
<path d="M0 0 C0.66 0.33 1.32 0.66 2 1 C-2.75 4 -2.75 4 -5 4 C-5.144375 4.804375 -5.28875 5.60875 -5.4375 6.4375 C-6 9 -6 9 -7 10 C-13.83249699 11.16315127 -20.58460239 11.11626804 -27.5 11.0625 C-28.60859375 11.05798828 -29.7171875 11.05347656 -30.859375 11.04882812 C-33.57297399 11.03713158 -36.28645761 11.02074086 -39 11 C-39 10.34 -39 9.68 -39 9 C-37.36804688 8.83564453 -37.36804688 8.83564453 -35.703125 8.66796875 C-23.88230374 7.41827352 -12.90110765 5.55777623 -1.9609375 0.671875 C-1.31382812 0.45015625 -0.66671875 0.2284375 0 0 Z " fill="#F5EAB1" transform="translate(404,129)"/>
<path d="M0 0 C1.2375 -0.01417969 2.475 -0.02835937 3.75 -0.04296875 C6.79680277 0.17309058 8.45444656 0.57743745 11 2.1875 C10.67 2.8475 10.34 3.5075 10 4.1875 C10.433125 4.64640625 10.86625 5.1053125 11.3125 5.578125 C11.869375 6.19171875 12.42625 6.8053125 13 7.4375 C13.556875 8.04078125 14.11375 8.6440625 14.6875 9.265625 C16 11.1875 16 11.1875 16 15.1875 C16.99 15.1875 17.98 15.1875 19 15.1875 C19 17.1675 19 19.1475 19 21.1875 C18.01 20.8575 17.02 20.5275 16 20.1875 C15.24326017 18.47660995 14.49203788 16.76259656 13.79296875 15.02734375 C11.38948707 9.45079265 7.91925772 7.37215453 2.58496094 5.0769043 C-1.72670626 3.59339432 -6.03695947 3.2562468 -10.5625 2.9375 C-11.93245117 2.82148437 -11.93245117 2.82148437 -13.33007812 2.703125 C-15.55264286 2.51694157 -17.77527366 2.34533206 -20 2.1875 C-20 1.8575 -20 1.5275 -20 1.1875 C-13.33930284 0.49290216 -6.69737674 0.06584615 0 0 Z " fill="#FBEA7E" transform="translate(121,87.8125)"/>
<path d="M0 0 C0.66 0 1.32 0 2 0 C1.37107066 4.10698435 0.02733127 7.40807505 -1.8125 11.125 C-2.56466797 12.67574219 -2.56466797 12.67574219 -3.33203125 14.2578125 C-5.01235567 17.02031307 -6.2004008 18.4255613 -9 20 C-12.75 20.1875 -12.75 20.1875 -16 20 C-16 18.68 -16 17.36 -16 16 C-14.27734375 14.39453125 -14.27734375 14.39453125 -11.9375 12.8125 C-7.52919917 9.61404829 -4.53966675 6.15427986 -1.41015625 1.72265625 C-0.71212891 0.86994141 -0.71212891 0.86994141 0 0 Z " fill="#F7F0CA" transform="translate(323,153)"/>
<path d="M0 0 C0.92296875 0.29261719 1.8459375 0.58523437 2.796875 0.88671875 C6.1074226 1.88778619 9.23149581 2.76555751 12.671875 3.13671875 C13.620625 3.28109375 14.569375 3.42546875 15.546875 3.57421875 C16.041875 4.56421875 16.041875 4.56421875 16.546875 5.57421875 C5.326875 6.56421875 -5.893125 7.55421875 -17.453125 8.57421875 C-14.61800823 6.44788117 -12.48659315 4.98513712 -9.390625 3.51171875 C-1.49857891 -0.26010366 -1.49857891 -0.26010366 0 0 Z " fill="#F3CE62" transform="translate(223.453125,183.42578125)"/>
<path d="M0 0 C-0.41153737 4.97093824 -0.79600832 9.44508386 -3 14 C-3.99 14 -4.98 14 -6 14 C-6.99 14.495 -6.99 14.495 -8 15 C-8.66 14.67 -9.32 14.34 -10 14 C-10.268125 14.78375 -10.53625 15.5675 -10.8125 16.375 C-12 19 -12 19 -15 21 C-15 19.68 -15 18.36 -15 17 C-14.34 16.67 -13.68 16.34 -13 16 C-11.87775145 14.11986894 -11.87775145 14.11986894 -10.875 11.9375 C-10.34519531 10.83728516 -10.34519531 10.83728516 -9.8046875 9.71484375 C-9.53914063 9.14894531 -9.27359375 8.58304688 -9 8 C-8.34 8 -7.68 8 -7 8 C-7.33 7.01 -7.66 6.02 -8 5 C-7.34 5 -6.68 5 -6 5 C-5.67 4.01 -5.34 3.02 -5 2 C-2 0 -2 0 0 0 Z " fill="#D99C2A" transform="translate(445,92)"/>
<path d="M0 0 C0.66 0 1.32 0 2 0 C2.46112386 8.60764545 0.72848437 16.61479306 -1 25 C-1.33 25 -1.66 25 -2 25 C-2.04898438 24.38511719 -2.09796875 23.77023438 -2.1484375 23.13671875 C-2.22320312 22.32847656 -2.29796875 21.52023438 -2.375 20.6875 C-2.44460937 19.88699219 -2.51421875 19.08648437 -2.5859375 18.26171875 C-2.89564426 15.72775559 -2.89564426 15.72775559 -5 13 C-5.625 10.8125 -5.625 10.8125 -6 9 C-7.98 9 -9.96 9 -12 9 C-11.46375 8.7525 -10.9275 8.505 -10.375 8.25 C-6.12641179 6.01390094 -2.68792483 4.03188725 0 0 Z " fill="#FBF7B1" transform="translate(141,78)"/>
<path d="M0 0 C-1.2065625 0.5878125 -1.2065625 0.5878125 -2.4375 1.1875 C-5.22376726 2.74051449 -5.22376726 2.74051449 -5.625 5.5 C-5.74875 6.325 -5.8725 7.15 -6 8 C-7.98685277 10.55452499 -10.14787407 11.57904837 -13 13 C-15.29791336 14.35007388 -17.59218046 15.70526823 -19.87890625 17.07421875 C-22 18 -22 18 -25 17 C-24.36191406 16.68546875 -23.72382813 16.3709375 -23.06640625 16.046875 C-22.24011719 15.61890625 -21.41382813 15.1909375 -20.5625 14.75 C-19.73878906 14.33234375 -18.91507813 13.9146875 -18.06640625 13.484375 C-15.86906447 12.16965097 -15.86906447 12.16965097 -15.08984375 9.953125 C-15.06019531 9.30859375 -15.03054687 8.6640625 -15 8 C-15.66 7.34 -16.32 6.68 -17 6 C-14.73495035 4.80015203 -12.46410112 3.61505231 -10.1875 2.4375 C-9.54490234 2.09525391 -8.90230469 1.75300781 -8.24023438 1.40039062 C-3.33984375 -1.11328125 -3.33984375 -1.11328125 0 0 Z " fill="#E4AF38" transform="translate(223,100)"/>
<path d="M0 0 C1.17949219 0.10183594 2.35898437 0.20367187 3.57421875 0.30859375 C4.47785156 0.39238281 5.38148438 0.47617188 6.3125 0.5625 C1.3125 7.13392857 1.3125 7.13392857 -3.6875 8.5625 C-3.6875 6.9125 -3.6875 5.2625 -3.6875 3.5625 C-4.6775 3.8925 -5.6675 4.2225 -6.6875 4.5625 C-7.6775 4.2325 -8.6675 3.9025 -9.6875 3.5625 C-10.6775 3.8925 -11.6675 4.2225 -12.6875 4.5625 C-14.08189664 4.62915376 -15.47919875 4.64788199 -16.875 4.625 C-18.7621875 4.5940625 -18.7621875 4.5940625 -20.6875 4.5625 C-20.6875 4.2325 -20.6875 3.9025 -20.6875 3.5625 C-19.92824219 3.35753906 -19.16898437 3.15257812 -18.38671875 2.94140625 C-16.89591797 2.53728516 -16.89591797 2.53728516 -15.375 2.125 C-14.38886719 1.85816406 -13.40273438 1.59132812 -12.38671875 1.31640625 C-7.79121307 0.03285691 -4.81144411 -0.42874254 0 0 Z " fill="#FAD957" transform="translate(306.6875,174.4375)"/>
<path d="M0 0 C0 0.66 0 1.32 0 2 C-0.99 2.495 -0.99 2.495 -2 3 C-1.34 3.66 -0.68 4.32 0 5 C-8.05364285 5.33608711 -14.49783264 5.0517291 -22 2 C-22 1.67 -22 1.34 -22 1 C-14.65623924 0.42240084 -7.36901413 -0.14738028 0 0 Z " fill="#F3DE78" transform="translate(150,131)"/>
<path d="M0 0 C17.16 0 34.32 0 52 0 C51.67 0.66 51.34 1.32 51 2 C45.555 1.505 45.555 1.505 40 1 C40 1.66 40 2.32 40 3 C26.8 2.34 13.6 1.68 0 1 C0 0.67 0 0.34 0 0 Z " fill="#F7C747" transform="translate(122,16)"/>
<path d="M0 0 C0.33 0 0.66 0 1 0 C1.19491452 1.45736087 1.38069358 2.91594593 1.5625 4.375 C1.66691406 5.18710938 1.77132812 5.99921875 1.87890625 6.8359375 C2 9 2 9 1 11 C1.66 11.33 2.32 11.66 3 12 C2 15 2 15 -1.0625 16.6875 C-2.031875 17.120625 -3.00125 17.55375 -4 18 C-3.67 18.33 -3.34 18.66 -3 19 C-1.07860387 18.67256303 -1.07860387 18.67256303 1.0625 18.0625 C2.16271484 17.77052734 2.16271484 17.77052734 3.28515625 17.47265625 C3.85105469 17.31667969 4.41695312 17.16070312 5 17 C5 17.66 5 18.32 5 19 C-0.82254243 20.96818336 -5.83381819 22.40214229 -12 22 C-12.33 21.01 -12.66 20.02 -13 19 C-12.14535156 18.71769531 -11.29070312 18.43539062 -10.41015625 18.14453125 C-6.83131401 16.72051118 -4.01093426 15.41819685 -1 13 C0.3622281 8.6001598 0.35240708 4.56773793 0 0 Z " fill="#EAB137" transform="translate(163,112)"/>
<path d="M0 0 C0.33 1.32 0.66 2.64 1 4 C-6.28162848 6.84737559 -13.55697903 9.60309494 -21 12 C-20.67 11.01 -20.34 10.02 -20 9 C-19.01 9 -18.02 9 -17 9 C-16.68869141 8.09507813 -16.68869141 8.09507813 -16.37109375 7.171875 C-14.45480304 4.13638317 -12.37030436 3.54906498 -9.0625 2.25 C-8.00160156 1.82203125 -6.94070313 1.3940625 -5.84765625 0.953125 C-3 0 -3 0 0 0 Z " fill="#FAE46B" transform="translate(299,66)"/>
<path d="M0 0 C0.66 0.33 1.32 0.66 2 1 C2 8.92 2 16.84 2 25 C1.67 25 1.34 25 1 25 C0.67 23.35 0.34 21.7 0 20 C-0.99 20.33 -1.98 20.66 -3 21 C-5.6875 20.5625 -5.6875 20.5625 -8 20 C-7.34 18.35 -6.68 16.7 -6 15 C-3.69 15.33 -1.38 15.66 1 16 C0.67 12.7 0.34 9.4 0 6 C-0.99 6 -1.98 6 -3 6 C-2.67 5.01 -2.34 4.02 -2 3 C-1.34 3 -0.68 3 0 3 C0 2.01 0 1.02 0 0 Z " fill="#FEF889" transform="translate(99,56)"/>
<path d="M0 0 C0.33 0.99 0.66 1.98 1 3 C-0.19824081 4.28035376 -1.40916027 5.54884635 -2.625 6.8125 C-3.63433594 7.87404297 -3.63433594 7.87404297 -4.6640625 8.95703125 C-8.74779908 12.52859351 -12.08547047 14.22004951 -17.5234375 14.07421875 C-19.14189449 13.96237416 -20.75922992 13.8330997 -22.375 13.6875 C-23.62216797 13.5956543 -23.62216797 13.5956543 -24.89453125 13.50195312 C-26.93087831 13.34981225 -28.96566224 13.17699165 -31 13 C-31 12.67 -31 12.34 -31 12 C-29.92685547 11.97873047 -29.92685547 11.97873047 -28.83203125 11.95703125 C-19.84224205 11.52673086 -9.42557037 9.86785651 -2.75 3.25 C-1.88375 2.13625 -1.88375 2.13625 -1 1 C-0.67 0.67 -0.34 0.34 0 0 Z " fill="#F8E274" transform="translate(317,131)"/>
<path d="M0 0 C2.47124277 4.94248553 3.31767711 7.72929154 2 13 C2.31595508 14.67004829 2.65179959 16.33637583 3 18 C3.12782974 21.70706238 3.17554079 24.47337764 2 28 C1.77674186 30.05893621 1.59294241 32.12233653 1.4375 34.1875 C1.35371094 35.27417969 1.26992187 36.36085937 1.18359375 37.48046875 C1.12300781 38.31191406 1.06242187 39.14335938 1 40 C0.67 40 0.34 40 0 40 C0 26.8 0 13.6 0 0 Z " fill="#FAF7CB" transform="translate(83,27)"/>
<path d="M0 0 C0.66 0 1.32 0 2 0 C2.00808685 0.65653061 2.01617371 1.31306122 2.02450562 1.98948669 C2.11088157 8.85214887 2.21039805 15.71453313 2.31738281 22.5769043 C2.35555308 25.13447382 2.39042633 27.69209485 2.421875 30.24975586 C2.46778545 33.93622177 2.52573723 37.6223368 2.5859375 41.30859375 C2.59748871 42.44332626 2.60903992 43.57805878 2.62094116 44.74717712 C2.73816088 51.12115514 3.37851079 56.82980683 5 63 C3 62 3 62 1.90087891 59.69213867 C0.61794277 54.43418657 0.64163185 49.32072836 0.5859375 43.92578125 C0.56657135 42.76499557 0.5472052 41.6042099 0.5272522 40.4082489 C0.46762868 36.70974002 0.42116461 33.01119892 0.375 29.3125 C0.33679968 26.81183564 0.29774676 24.31118415 0.2578125 21.81054688 C0 5.26172825 0 5.26172825 0 0 Z " fill="#F0CF61" transform="translate(354,113)"/>
<path d="M0 0 C1.87184371 3.74368742 2.23999767 4.8400791 2.125 8.75 C2.10695312 9.54921875 2.08890625 10.3484375 2.0703125 11.171875 C2.04710937 11.77515625 2.02390625 12.3784375 2 13 C6.76052962 14.97387813 9.96488101 15.0070238 15 14 C15.33 15.65 15.66 17.3 16 19 C10.53107829 21.11057901 5.18597517 17.86018675 0 16 C0 10.72 0 5.44 0 0 Z " fill="#E7B13A" transform="translate(226,149)"/>
<path d="M0 0 C0.66 0.33 1.32 0.66 2 1 C0.61491556 4.22486831 -0.90592505 5.99382399 -3.625 8.1875 C-8.22457444 12.06259934 -12.10442114 16.4309833 -16 21 C-16.33 20.34 -16.66 19.68 -17 19 C-16.22265625 17.2734375 -16.22265625 17.2734375 -15.0625 15.375 C-14.0415625 13.704375 -14.0415625 13.704375 -13 12 C-12.34 12 -11.68 12 -11 12 C-10.91621094 11.41605469 -10.83242188 10.83210938 -10.74609375 10.23046875 C-9.7831636 7.35176133 -8.37943556 6.24397792 -6.0625 4.3125 C-5.35222656 3.71050781 -4.64195312 3.10851562 -3.91015625 2.48828125 C-2 1 -2 1 0 0 Z " fill="#F0CD53" transform="translate(290,90)"/>
<path d="M0 0 C1.175625 0.144375 2.35125 0.28875 3.5625 0.4375 C4.22378906 0.51871094 4.88507813 0.59992188 5.56640625 0.68359375 C7.42351816 0.92504811 9.27577786 1.20412446 11.125 1.5 C15.89365264 2.11531002 20.63655317 2.35165928 25.4375 2.5625 C26.35982422 2.60568359 27.28214844 2.64886719 28.23242188 2.69335938 C30.48816163 2.79854931 32.74399499 2.90069107 35 3 C34.67 3.66 34.34 4.32 34 5 C26.0180092 5.23099009 18.19038647 4.98521549 10.25 4.1875 C9.46383301 4.11740723 8.67766602 4.04731445 7.86767578 3.97509766 C5.640625 3.73046875 5.640625 3.73046875 2 3 C1.34 2.01 0.68 1.02 0 0 Z " fill="#F0D078" transform="translate(243,175)"/>
<path d="M0 0 C0.495 0.99 0.495 0.99 1 2 C-3.14408265 2.28788454 -7.2883678 2.57259951 -11.43286133 2.85449219 C-12.84014638 2.9506451 -14.24737452 3.04763511 -15.65454102 3.14550781 C-17.68751547 3.28675666 -19.72068161 3.42490504 -21.75390625 3.5625 C-22.97408447 3.64628906 -24.1942627 3.73007812 -25.45141602 3.81640625 C-28.97472903 3.99869255 -32.47267844 4.03165291 -36 4 C-36 3.67 -36 3.34 -36 3 C-23.86858215 0.76281208 -12.33639261 -0.4264822 0 0 Z " fill="#FDDD60" transform="translate(429,35)"/>
<path d="M0 0 C0.66 0 1.32 0 2 0 C2 0.66 2 1.32 2 2 C1.34 2 0.68 2 0 2 C-0.08138426 4.87557703 -0.14067851 7.74882262 -0.1875 10.625 C-0.21263672 11.43324219 -0.23777344 12.24148437 -0.26367188 13.07421875 C-0.35648595 20.68497252 2.05971419 25.20794078 7 31 C2.31682216 29.26548969 -0.79620379 25.40759243 -3 21 C-3.15112939 18.38139265 -3.23133862 15.80709118 -3.25 13.1875 C-3.270625 12.47529297 -3.29125 11.76308594 -3.3125 11.02929688 C-3.34590925 6.51487146 -2.87098735 3.5469237 0 0 Z " fill="#EFB537" transform="translate(270,110)"/>
<path d="M0 0 C15.51 0 31.02 0 47 0 C42.78185146 2.10907427 40.13267455 2.19094547 35.609375 1.9765625 C34.90476135 1.95153656 34.20014771 1.92651062 33.47418213 1.90072632 C31.2322779 1.81880855 28.99129233 1.72211305 26.75 1.625 C25.22659955 1.56673139 23.70316183 1.50942874 22.1796875 1.453125 C18.45262781 1.31327353 14.72624822 1.16016663 11 1 C10.67 1.99 10.34 2.98 10 4 C6.7 3.01 3.4 2.02 0 1 C0 0.67 0 0.34 0 0 Z " fill="#F3E8AC" transform="translate(210,55)"/>
<path d="M0 0 C6.6 0 13.2 0 20 0 C20 0.33 20 0.66 20 1 C25.28 1.33 30.56 1.66 36 2 C36 2.33 36 2.66 36 3 C31.35526018 3.07416067 26.71086501 3.12860615 22.06567383 3.16479492 C20.48553464 3.17988094 18.90543731 3.2003525 17.32543945 3.22631836 C15.05409415 3.26271126 12.78330241 3.27972762 10.51171875 3.29296875 C9.45219246 3.31619453 9.45219246 3.31619453 8.3712616 3.33988953 C6.36987305 3.34057617 6.36987305 3.34057617 3 3 C2.01 2.01 1.02 1.02 0 0 Z " fill="#FEEE6D" transform="translate(99,15)"/>
<path d="M0 0 C1.12588014 0.95729916 2.2506715 1.91587895 3.375 2.875 C4.00148438 3.40867188 4.62796875 3.94234375 5.2734375 4.4921875 C6.55836651 5.61432007 7.79371975 6.79371975 9 8 C2.07 8 -4.86 8 -12 8 C-11.67 7.01 -11.34 6.02 -11 5 C-10.01 5.33 -9.02 5.66 -8 6 C-5.99890722 5.67329097 -3.99883869 5.34022786 -2 5 C-1.34 5.33 -0.68 5.66 0 6 C-0.2784375 4.7934375 -0.2784375 4.7934375 -0.5625 3.5625 C-0.706875 2.716875 -0.85125 1.87125 -1 1 C-0.67 0.67 -0.34 0.34 0 0 Z " fill="#D49425" transform="translate(102,155)"/>
<path d="M0 0 C0.33 0 0.66 0 1 0 C1 2.64 1 5.28 1 8 C0.34 7.34 -0.32 6.68 -1 6 C-1.99 7.485 -1.99 7.485 -3 9 C-3.99 9 -4.98 9 -6 9 C-6 9.66 -6 10.32 -6 11 C-6.76054687 11.42023438 -7.52109375 11.84046875 -8.3046875 12.2734375 C-11.55724165 14.3569577 -12.46035339 16.1774532 -14.125 19.625 C-15.5703125 22.6015625 -15.5703125 22.6015625 -17 25 C-17.99 25.33 -18.98 25.66 -20 26 C-19.67 24.68 -19.34 23.36 -19 22 C-18.34 22 -17.68 22 -17 22 C-16.90332031 21.26136719 -16.80664062 20.52273437 -16.70703125 19.76171875 C-15.90614045 16.63337732 -14.83663798 15.1917384 -12.6875 12.8125 C-12.09324219 12.13832031 -11.49898438 11.46414062 -10.88671875 10.76953125 C-9.00506618 9.00475151 -7.30038172 8.11340437 -5 7 C-4.67 6.34 -4.34 5.68 -4 5 C-3.34 5 -2.68 5 -2 5 C-2 4.34 -2 3.68 -2 3 C-1.34 3 -0.68 3 0 3 C0 2.01 0 1.02 0 0 Z " fill="#FEDF65" transform="translate(445,78)"/>
<path d="M0 0 C0.98226562 -0.02578125 1.96453125 -0.0515625 2.9765625 -0.078125 C3.76804687 0.03015625 4.55953125 0.1384375 5.375 0.25 C6.035 1.24 6.695 2.23 7.375 3.25 C7.045 4.24 6.715 5.23 6.375 6.25 C5.76269531 5.94320312 5.15039062 5.63640625 4.51953125 5.3203125 C0.09397235 3.8139732 -4.29754865 3.52505234 -8.9375 3.125 C-9.86884766 3.03863281 -10.80019531 2.95226562 -11.75976562 2.86328125 C-14.04764973 2.65209195 -16.33593346 2.44788734 -18.625 2.25 C-18.625 1.92 -18.625 1.59 -18.625 1.25 C-12.42488704 0.63438595 -6.23025529 0.15085364 0 0 Z " fill="#F9E36C" transform="translate(119.625,87.75)"/>
<path d="M0 0 C2.63804589 -0.39397335 2.63804589 -0.39397335 5 -1 C1.90291003 1.5339827 -1.18458673 3.09437058 -4.875 4.625 C-5.88304687 5.05039063 -6.89109375 5.47578125 -7.9296875 5.9140625 C-10.96456891 6.98746839 -13.81564428 7.57225072 -17 8 C-17 7.34 -17 6.68 -17 6 C-14.73495035 4.80015203 -12.46410112 3.61505231 -10.1875 2.4375 C-9.54490234 2.09525391 -8.90230469 1.75300781 -8.24023438 1.40039062 C-3.33984375 -1.11328125 -3.33984375 -1.11328125 0 0 Z " fill="#F6E07C" transform="translate(459,126)"/>
<path d="M0 0 C0.33 0.66 0.66 1.32 1 2 C0.34 2.66 -0.32 3.32 -1 4 C-2.03842565 6.31648799 -3.0421975 8.64903024 -4 11 C-4.66 11 -5.32 11 -6 11 C-6.2475 11.928125 -6.495 12.85625 -6.75 13.8125 C-8.06454245 17.16458325 -8.97963384 18.1877803 -12 20 C-12 18.68 -12 17.36 -12 16 C-11.34 15.67 -10.68 15.34 -10 15 C-8.87775145 13.11986894 -8.87775145 13.11986894 -7.875 10.9375 C-7.34519531 9.83728516 -7.34519531 9.83728516 -6.8046875 8.71484375 C-6.53914063 8.14894531 -6.27359375 7.58304687 -6 7 C-5.34 7 -4.68 7 -4 7 C-4.33 6.01 -4.66 5.02 -5 4 C-4.34 4 -3.68 4 -3 4 C-2.67 3.01 -2.34 2.02 -2 1 C-1.34 0.67 -0.68 0.34 0 0 Z " fill="#E3AA33" transform="translate(442,93)"/>
<path d="M0 0 C0.99 0.33 1.98 0.66 3 1 C3 1.66 3 2.32 3 3 C3.66 3.33 4.32 3.66 5 4 C5.33 3.34 5.66 2.68 6 2 C6 2.99 6 3.98 6 5 C2.5980513 7.09350689 -0.05272412 7.17942163 -4 7 C-4 5.68 -4 4.36 -4 3 C-2.1875 1.1875 -2.1875 1.1875 0 0 Z " fill="#F9F4BD" transform="translate(311,166)"/>
<path d="M0 0 C1.32 0.33 2.64 0.66 4 1 C3.67 1.9075 3.34 2.815 3 3.75 C1.68930566 8.2320247 1.89057037 12.5980139 2.02734375 17.23046875 C2.00263813 19.73279504 1.8636351 21.65965551 1 24 C-1.0625 25.25 -1.0625 25.25 -3 26 C-2.68289062 24.8759375 -2.36578125 23.751875 -2.0390625 22.59375 C-0.86570187 17.90030749 -0.56340828 13.32011178 -0.375 8.5 C-0.33632812 7.67757812 -0.29765625 6.85515625 -0.2578125 6.0078125 C-0.16468308 4.0055299 -0.08131015 2.00279738 0 0 Z " fill="#CD8C1F" transform="translate(84,132)"/>
<path d="M0 0 C-3.1198191 2.39531135 -6.33073142 4.60117791 -9.625 6.75 C-10.58664062 7.38421875 -11.54828125 8.0184375 -12.5390625 8.671875 C-13.35117187 9.11015625 -14.16328125 9.5484375 -15 10 C-15.66 9.67 -16.32 9.34 -17 9 C-15.51219674 4.98293121 -13.32728651 3.68752877 -9.625 1.6875 C-8.66851562 1.15511719 -7.71203125 0.62273437 -6.7265625 0.07421875 C-3.85272417 -1.05802414 -2.80808947 -1.13787512 0 0 Z " fill="#FAED81" transform="translate(306,84)"/>
<path d="M0 0 C0.66 0.33 1.32 0.66 2 1 C4.4219467 9.75626884 3.50998813 18.72645654 0 27 C-0.82638376 24.10765685 -1 22.11257569 -1 19 C-0.34 19 0.32 19 1 19 C0.67 12.73 0.34 6.46 0 0 Z " fill="#C0801A" transform="translate(497,64)"/>
<path d="M0 0 C0.99 0.495 0.99 0.495 2 1 C2 5.62 2 10.24 2 15 C3.32 15.66 4.64 16.32 6 17 C5.03320312 17.29003906 5.03320312 17.29003906 4.046875 17.5859375 C1.65648799 18.88708247 1.65648799 18.88708247 1.390625 22.0390625 C1.34421875 23.22242187 1.2978125 24.40578125 1.25 25.625 C1.19328125 26.81351563 1.1365625 28.00203125 1.078125 29.2265625 C1.05234375 30.14179687 1.0265625 31.05703125 1 32 C0.67 32 0.34 32 0 32 C0 21.44 0 10.88 0 0 Z " fill="#F1BE3B" transform="translate(84,76)"/>
<path d="M0 0 C0.66 0.33 1.32 0.66 2 1 C1.01 2.485 1.01 2.485 0 4 C-0.66 3.67 -1.32 3.34 -2 3 C-1.34 2.01 -0.68 1.02 0 0 Z M-1 5 C-1.33 6.65 -1.66 8.3 -2 10 C-4.31 10.33 -6.62 10.66 -9 11 C-8.75 8.625 -8.75 8.625 -8 6 C-5.12732844 3.89337419 -4.46720491 3.84426503 -1 5 Z " fill="#FAEC80" transform="translate(407,127)"/>
<path d="M0 0 C0 0.99 0 1.98 0 3 C-0.99 3.33 -1.98 3.66 -3 4 C-3.33 4.99 -3.66 5.98 -4 7 C-6.0625 7.6875 -6.0625 7.6875 -8 8 C-8.33 9.32 -8.66 10.64 -9 12 C-9.66 12 -10.32 12 -11 12 C-11.66 13.98 -12.32 15.96 -13 18 C-13.75 16.4375 -13.75 16.4375 -14 14 C-12.86915563 11.49713591 -11.47860484 9.32992278 -10 7 C-9.34 7 -8.68 7 -8 7 C-7.79375 6.401875 -7.5875 5.80375 -7.375 5.1875 C-5.49073918 2.18981233 -3.18867916 1.38638224 0 0 Z " fill="#FEF795" transform="translate(441,78)"/>
<path d="M0 0 C0 3.49889647 -0.54120332 4.0553603 -2.75 6.625 C-3.26046875 7.23601562 -3.7709375 7.84703125 -4.296875 8.4765625 C-6.2294048 10.20520154 -7.50364062 10.47001894 -10 11 C-11.7074998 12.28062485 -13.38263741 13.6072711 -15 15 C-15.66 14.67 -16.32 14.34 -17 14 C-14.91784697 12.22776281 -12.83433081 10.45717274 -10.75 8.6875 C-10.16347656 8.18798828 -9.57695312 7.68847656 -8.97265625 7.17382812 C-6.04373434 4.68918088 -3.11144626 2.2565687 0 0 Z " fill="#F3CE67" transform="translate(475,110)"/>
<path d="M0 0 C2.49118953 3.7367843 2.2065226 5.74451819 2.125 10.1875 C2.10695312 11.45980469 2.08890625 12.73210937 2.0703125 14.04296875 C2.03550781 15.50669922 2.03550781 15.50669922 2 17 C-0.4294516 13.3558226 -0.16179575 11.28758728 0 7 C-2.64 7 -5.28 7 -8 7 C-7.67 6.34 -7.34 5.68 -7 5 C-3.9375 4.375 -3.9375 4.375 -1 4 C-0.67 2.68 -0.34 1.36 0 0 Z " fill="#FEF281" transform="translate(176,85)"/>
<path d="M0 0 C1.98 0.66 3.96 1.32 6 2 C5.34 2.556875 4.68 3.11375 4 3.6875 C1.74507789 5.84062308 1.74507789 5.84062308 1.75 8.75 C1.8325 9.4925 1.915 10.235 2 11 C0.35 9.68 -1.3 8.36 -3 7 C-2.34 5.68 -1.68 4.36 -1 3 C-0.34 3 0.32 3 1 3 C0.67 2.01 0.34 1.02 0 0 Z " fill="#DB9F2D" transform="translate(474,42)"/>
<path d="M0 0 C0.33 0.99 0.66 1.98 1 3 C-3.47511918 8.16359905 -7.29538737 10.5580153 -14 12 C-17.0625 12.1875 -17.0625 12.1875 -19 12 C-16.29539104 10.19692736 -14.14827807 9.26724217 -11.125 8.1875 C-6.62561871 6.440295 -4.08100004 4.67732262 -1 1 C-0.67 0.67 -0.34 0.34 0 0 Z " fill="#F5E7A6" transform="translate(317,131)"/>
<path d="M0 0 C0.33 0 0.66 0 1 0 C1.19491452 1.45736087 1.38069358 2.91594593 1.5625 4.375 C1.66691406 5.18710938 1.77132812 5.99921875 1.87890625 6.8359375 C2 9 2 9 1 11 C1.66 11.33 2.32 11.66 3 12 C2 15 2 15 -0.8125 16.625 C-3.25800018 17.67992164 -5.40235776 18.50045341 -8 19 C-8 18.34 -8 17.68 -8 17 C-6.865625 16.608125 -5.73125 16.21625 -4.5625 15.8125 C-2.52538269 14.83276369 -2.52538269 14.83276369 -1 13 C-0.05692654 8.66507712 0.04477291 4.42612188 0 0 Z " fill="#F0BA3A" transform="translate(163,112)"/>
<path d="M0 0 C2.35448165 2.55068845 2.98327924 3.71017358 3.1875 7.25 C3.125625 8.1575 3.06375 9.065 3 10 C2.195625 10.28875 1.39125 10.5775 0.5625 10.875 C-2.1326468 11.73262568 -2.1326468 11.73262568 -3 14 C-3.66 14 -4.32 14 -5 14 C-4.6875 12.0625 -4.6875 12.0625 -4 10 C-3.01 9.67 -2.02 9.34 -1 9 C0.00217064 5.41672247 0.00217064 5.41672247 -1 2 C-0.67 1.34 -0.34 0.68 0 0 Z " fill="#FEEE7C" transform="translate(442,71)"/>
<path d="M0 0 C0.66 0.33 1.32 0.66 2 1 C-0.21817459 5.5595811 -2.45405314 6.92467643 -7 9 C-7.33 9.66 -7.66 10.32 -8 11 C-8.66 11 -9.32 11 -10 11 C-10.33 11.66 -10.66 12.32 -11 13 C-10.9375 10.8125 -10.9375 10.8125 -10 8 C-8.35278955 6.54757536 -6.6426171 5.38616999 -4.7890625 4.2109375 C-2.95633769 2.97044691 -1.5143018 1.60720375 0 0 Z " fill="#FEFCA7" transform="translate(441,74)"/>
<path d="M0 0 C2.31 0.33 4.62 0.66 7 1 C6.6875 2.9375 6.6875 2.9375 6 5 C2.71023192 6.09658936 1.28696233 5.79953138 -2 5 C-1.34 3.35 -0.68 1.7 0 0 Z " fill="#FAD65D" transform="translate(93,71)"/>
<path d="M0 0 C0.66 0 1.32 0 2 0 C2 10.23 2 20.46 2 31 C1.67 31 1.34 31 1 31 C0.8568968 27.06732611 0.71449972 23.13462735 0.57275391 19.2019043 C0.50069904 17.20685496 0.42808663 15.21182579 0.35546875 13.21679688 C0.31035156 11.96318359 0.26523437 10.70957031 0.21875 9.41796875 C0.17685547 8.26063232 0.13496094 7.1032959 0.09179688 5.91088867 C0.02968561 3.94133398 0 1.97053381 0 0 Z " fill="#F7E57E" transform="translate(354,113)"/>
<path d="M0 0 C-0.33 1.32 -0.66 2.64 -1 4 C-5.04141194 4.63394697 -8.9065307 5.12404452 -13 5 C-9.08937341 1.08937341 -5.46449795 0 0 0 Z " fill="#FDF183" transform="translate(332,54)"/>
<path d="M0 0 C1.7015625 0.4640625 1.7015625 0.4640625 3.4375 0.9375 C7.92461414 2.06931233 12.39707347 2.59511294 17 3 C17 3.33 17 3.66 17 4 C10.07 4 3.14 4 -4 4 C-4 3.67 -4 3.34 -4 3 C-2.35 2.67 -0.7 2.34 1 2 C0.67 1.34 0.34 0.68 0 0 Z " fill="#F9E98A" transform="translate(363,180)"/>
<path d="M0 0 C0.66 0 1.32 0 2 0 C2 1.98 2 3.96 2 6 C1.2575 6.12375 0.515 6.2475 -0.25 6.375 C-2.80141485 6.95486701 -4.7267573 7.73708739 -7 9 C-6.1875 7.0625 -6.1875 7.0625 -5 5 C-4.01 4.67 -3.02 4.34 -2 4 C-0.79117904 1.99983534 -0.79117904 1.99983534 0 0 Z " fill="#FEF186" transform="translate(353,106)"/>
<path d="M0 0 C1.2065625 0.0309375 1.2065625 0.0309375 2.4375 0.0625 C1.4375 3.0625 1.4375 3.0625 -0.125 4.4375 C-1.83483291 6.03808548 -1.83483291 6.03808548 -1.75 8.75 C-1.688125 9.513125 -1.62625 10.27625 -1.5625 11.0625 C-2.5525 11.5575 -2.5525 11.5575 -3.5625 12.0625 C-3.58937279 10.25007948 -3.60883715 8.43754767 -3.625 6.625 C-3.63660156 5.61566406 -3.64820312 4.60632813 -3.66015625 3.56640625 C-3.52706167 0.15386128 -3.42090834 0.08343679 0 0 Z " fill="#FDE974" transform="translate(87.5625,63.9375)"/>
<path d="M0 0 C4.62 0 9.24 0 14 0 C12.68 0.33 11.36 0.66 10 1 C10.33 1.99 10.66 2.98 11 4 C10.01 4.495 10.01 4.495 9 5 C6.8359375 4.22265625 6.8359375 4.22265625 4.375 3.0625 C3.55773437 2.68222656 2.74046875 2.30195313 1.8984375 1.91015625 C1.27195312 1.60980469 0.64546875 1.30945313 0 1 C0 0.67 0 0.34 0 0 Z " fill="#FAEE87" transform="translate(68,15)"/>
<path d="M0 0 C0.99 0.33 1.98 0.66 3 1 C3.928125 0.814375 4.85625 0.62875 5.8125 0.4375 C9.4755813 -0.06527587 11.6107709 0.62816918 15 2 C15 2.33 15 2.66 15 3 C9.72 3 4.44 3 -1 3 C-0.67 2.01 -0.34 1.02 0 0 Z " fill="#C88823" transform="translate(91,160)"/>
<path d="M0 0 C0.66 0.33 1.32 0.66 2 1 C2 1.66 2 2.32 2 3 C4.97 3.495 4.97 3.495 8 4 C8 4.33 8 4.66 8 5 C3.71 5 -0.58 5 -5 5 C-3.35 3.35 -1.7 1.7 0 0 Z " fill="#CF8C20" transform="translate(80,158)"/>
<path d="M0 0 C0.33 0 0.66 0 1 0 C1 2.64 1 5.28 1 8 C0.34 7.34 -0.32 6.68 -1 6 C-1.99 7.485 -1.99 7.485 -3 9 C-3.99 9 -4.98 9 -6 9 C-6 9.66 -6 10.32 -6 11 C-6.99 11.33 -7.98 11.66 -9 12 C-9 11.01 -9 10.02 -9 9 C-8.360625 8.71125 -7.72125 8.4225 -7.0625 8.125 C-4.84793921 7.17176549 -4.84793921 7.17176549 -4 5 C-3.34 5 -2.68 5 -2 5 C-2 4.34 -2 3.68 -2 3 C-1.34 3 -0.68 3 0 3 C0 2.01 0 1.02 0 0 Z " fill="#F8D960" transform="translate(445,78)"/>
<path d="M0 0 C0.66 0.33 1.32 0.66 2 1 C0.60667426 4.36720387 -0.9789286 5.9859524 -4 8 C-5.32 7.34 -6.64 6.68 -8 6 C-5.36 4.02 -2.72 2.04 0 0 Z " fill="#F9DA5D" transform="translate(290,90)"/>
<path d="M0 0 C0.33 0.99 0.66 1.98 1 3 C3.64 3.33 6.28 3.66 9 4 C8.01 5.485 8.01 5.485 7 7 C4.03 6.67 1.06 6.34 -2 6 C-1.125 1.125 -1.125 1.125 0 0 Z " fill="#FEF58E" transform="translate(86,59)"/>
<path d="M0 0 C1.21236328 0.01353516 1.21236328 0.01353516 2.44921875 0.02734375 C3.37154297 0.04474609 3.37154297 0.04474609 4.3125 0.0625 C4.3125 1.0525 4.3125 2.0425 4.3125 3.0625 C0.6825 3.0625 -2.9475 3.0625 -6.6875 3.0625 C-7.0175 2.4025 -7.3475 1.7425 -7.6875 1.0625 C-4.80538698 0.10179566 -2.98899956 -0.04331883 0 0 Z " fill="#FCEC75" transform="translate(309.6875,171.9375)"/>
<path d="M0 0 C1.80691678 3.61383355 2.56157766 6.05419896 3 10 C2.67 10.33 2.34 10.66 2 11 C1.63239269 13.32817964 1.29758419 15.6618385 1 18 C0.67 18 0.34 18 0 18 C0 12.06 0 6.12 0 0 Z " fill="#FEF397" transform="translate(337,109)"/>
<path d="M0 0 C0.33 0.66 0.66 1.32 1 2 C-2 3 -2 3 -5 2 C-5.99 2.33 -6.98 2.66 -8 3 C-9.39439664 3.06665376 -10.79169875 3.08538199 -12.1875 3.0625 C-14.0746875 3.0315625 -14.0746875 3.0315625 -16 3 C-16 2.67 -16 2.34 -16 2 C-10.54538831 0.61470179 -5.63281599 -0.2396943 0 0 Z " fill="#F5C340" transform="translate(302,176)"/>
<path d="M0 0 C-0.33 0.99 -0.66 1.98 -1 3 C-3.06640625 3.94921875 -3.06640625 3.94921875 -5.5625 4.6875 C-6.38878906 4.93886719 -7.21507812 5.19023438 -8.06640625 5.44921875 C-8.70449219 5.63097656 -9.34257812 5.81273438 -10 6 C-10.33 5.34 -10.66 4.68 -11 4 C-9.73308493 3.32591692 -8.46129251 2.66099503 -7.1875 2 C-6.47980469 1.62875 -5.77210938 1.2575 -5.04296875 0.875 C-3 0 -3 0 0 0 Z " fill="#FCF596" transform="translate(315,78)"/>
<path d="M0 0 C-0.99 1.485 -0.99 1.485 -2 3 C-4.80435411 3.05632424 -7.35146678 2.95814702 -10.125 2.6875 C-10.87910156 2.62626953 -11.63320312 2.56503906 -12.41015625 2.50195312 C-14.27463438 2.3485467 -16.13752498 2.17606541 -18 2 C-18 1.67 -18 1.34 -18 1 C-16.12528812 0.83012319 -14.25021305 0.66425224 -12.375 0.5 C-11.33085938 0.4071875 -10.28671875 0.314375 -9.2109375 0.21875 C-6.12853212 0.00875645 -3.08834771 -0.03709727 0 0 Z " fill="#F9DB5B" transform="translate(119,88)"/>
<path d="M0 0 C-0.66 1.32 -1.32 2.64 -2 4 C-4.64 3.67 -7.28 3.34 -10 3 C-6.84439813 -0.15560187 -4.30999015 -1.43666338 0 0 Z " fill="#FAD14F" transform="translate(268,80)"/>
<path d="M0 0 C-0.99 1.32 -1.98 2.64 -3 4 C-5.02045442 3.39816251 -7.02111039 2.72693904 -9 2 C-9.33 1.34 -9.66 0.68 -10 0 C-6.30581799 -1.231394 -3.7943739 -0.64432764 0 0 Z " fill="#F7E37E" transform="translate(350,49)"/>
<path d="M0 0 C2 3 2 3 1.84765625 5.015625 C0.7949874 7.47993734 -0.3367385 8.29313793 -2.5625 9.75 C-3.20316406 10.17796875 -3.84382813 10.6059375 -4.50390625 11.046875 C-5.24447266 11.51867187 -5.24447266 11.51867187 -6 12 C-4 8 -2 4 0 0 Z " fill="#F8CA45" transform="translate(423,109)"/>
<path d="M0 0 C0.33 1.32 0.66 2.64 1 4 C-0.8125 5.0625 -0.8125 5.0625 -3 6 C-3.99 5.67 -4.98 5.34 -6 5 C-3.375 1.125 -3.375 1.125 0 0 Z " fill="#FCEE7D" transform="translate(304,63)"/>
<path d="M0 0 C-7.28571429 4.57142857 -7.28571429 4.57142857 -12 4 C-12 3.34 -12 2.68 -12 2 C-3 -1 -3 -1 0 0 Z " fill="#E6B940" transform="translate(196,120)"/>
<path d="M0 0 C2.5 1.5625 2.5 1.5625 5 4 C5.3125 7.75 5.3125 7.75 5 11 C4.34 11 3.68 11 3 11 C2.01 7.37 1.02 3.74 0 0 Z " fill="#F1DA73" transform="translate(176,27)"/>
<path d="M0 0 C2.64 0.33 5.28 0.66 8 1 C8 1.66 8 2.32 8 3 C9.32 3.33 10.64 3.66 12 4 C10.37399059 3.9129995 8.74910322 3.8048219 7.125 3.6875 C6.22007812 3.62949219 5.31515625 3.57148438 4.3828125 3.51171875 C2 3 2 3 0 0 Z " fill="#F2C755" transform="translate(243,175)"/>
<path d="M0 0 C0.66 0 1.32 0 2 0 C2 2.97 2 5.94 2 9 C1.67 7.68 1.34 6.36 1 5 C-0.65 5.33 -2.3 5.66 -4 6 C-2.7260411 3.96166576 -1.38938077 1.96147874 0 0 Z " fill="#EFDAA5" transform="translate(141,78)"/>
<path d="M0 0 C0.66 0.33 1.32 0.66 2 1 C2.25 3.8125 2.25 3.8125 2 7 C0 8.875 0 8.875 -2 10 C-2 6.38970831 -1.03907418 3.44193324 0 0 Z " fill="#FEFEBA" transform="translate(99,45)"/>
<path d="M0 0 C2.97 0.33 5.94 0.66 9 1 C8.01 2.32 7.02 3.64 6 5 C4.125 4.75 4.125 4.75 2 4 C1.34 2.68 0.68 1.36 0 0 Z " fill="#FBF08F" transform="translate(79,21)"/>
<path d="M0 0 C2.0625 0.4375 2.0625 0.4375 4 1 C4 1.99 4 2.98 4 4 C2.35 4.66 0.7 5.32 -1 6 C-1.042721 4.33388095 -1.04063832 2.66617115 -1 1 C-0.67 0.67 -0.34 0.34 0 0 Z " fill="#F3C847" transform="translate(304,177)"/>
<path d="M0 0 C1.16959987 0.97566112 2.33561177 1.955625 3.5 2.9375 C4.1496875 3.48277344 4.799375 4.02804688 5.46875 4.58984375 C5.9740625 5.05519531 6.479375 5.52054688 7 6 C7 6.33 7 6.66 7 7 C5.35 7 3.7 7 2 7 C1.34 4.69 0.68 2.38 0 0 Z " fill="#F0C24B" transform="translate(359,176)"/>
<path d="M0 0 C0.66 0 1.32 0 2 0 C2 0.66 2 1.32 2 2 C1.34 2 0.68 2 0 2 C-0.33 5.3 -0.66 8.6 -1 12 C-1.33 12 -1.66 12 -2 12 C-3.34382872 5.76952141 -3.34382872 5.76952141 -1.6875 2.0625 C-1.130625 1.381875 -0.57375 0.70125 0 0 Z " fill="#F3BE3D" transform="translate(270,110)"/>
<path d="M0 0 C-2 2 -2 2 -5.625 2.125 C-6.73875 2.08375 -7.8525 2.0425 -9 2 C-9.33 1.34 -9.66 0.68 -10 0 C-6.7169902 -1.6415049 -3.57454967 -0.51888624 0 0 Z " fill="#FEFB9E" transform="translate(316,171)"/>
<path d="M0 0 C1.1875 1.6875 1.1875 1.6875 2 4 C0.8125 6.75 0.8125 6.75 -1 9 C-1.99 9 -2.98 9 -4 9 C-3.2884375 7.88625 -3.2884375 7.88625 -2.5625 6.75 C-1.22130673 4.38949985 -0.487688 2.63351523 0 0 Z " fill="#D89826" transform="translate(162,154)"/>
<path d="M0 0 C2 4 2 4 1.875 6.125 C1 8 1 8 -3 10 C-2.01 6.7 -1.02 3.4 0 0 Z " fill="#C4831B" transform="translate(84,148)"/>
<path d="M0 0 C0 0.66 0 1.32 0 2 C-0.99 2.495 -0.99 2.495 -2 3 C-1.34 3.66 -0.68 4.32 0 5 C-2.97 4.505 -2.97 4.505 -6 4 C-5.67 3.01 -5.34 2.02 -5 1 C-3 0 -3 0 0 0 Z " fill="#FAD451" transform="translate(150,131)"/>
<path d="M0 0 C1.98 0 3.96 0 6 0 C5.67 1.32 5.34 2.64 5 4 C3.35 4 1.7 4 0 4 C0 2.66666667 0 1.33333333 0 0 Z " fill="#FEFEC3" transform="translate(375,57)"/>
<path d="M0 0 C2.09749995 2.35968744 2.96905704 3.54616994 3.1875 6.75 C3.125625 7.4925 3.06375 8.235 3 9 C2.67 8.34 2.34 7.68 2 7 C1.34 7 0.68 7 0 7 C-1.125 2.25 -1.125 2.25 0 0 Z " fill="#F6EB95" transform="translate(442,71)"/>
<path d="M0 0 C0.99 0 1.98 0 3 0 C2.67 1.32 2.34 2.64 2 4 C0.68 4.33 -0.64 4.66 -2 5 C-1.34 3.35 -0.68 1.7 0 0 Z " fill="#FDFEC9" transform="translate(315,165)"/>
<path d="M0 0 C0.99 0.33 1.98 0.66 3 1 C3 1.66 3 2.32 3 3 C2.34 3 1.68 3 1 3 C1 5.31 1 7.62 1 10 C0.34 10 -0.32 10 -1 10 C-0.67 6.7 -0.34 3.4 0 0 Z " fill="#CD8F25" transform="translate(85,117)"/>
<path d="M0 0 C0.99 0 1.98 0 3 0 C3 1.98 3 3.96 3 6 C2.01 5.67 1.02 5.34 0 5 C0 3.35 0 1.7 0 0 Z " fill="#ECD782" transform="translate(137,103)"/>
</svg>
